<?xml version="1.0" encoding="utf-8"?>
<!-- Generator: Adobe Illustrator 18.1.1, SVG Export Plug-In . SVG Version: 6.00 Build 0)  -->
<!DOCTYPE svg PUBLIC "-//W3C//DTD SVG 1.1//EN" "http://www.w3.org/Graphics/SVG/1.1/DTD/svg11.dtd">
<svg version="1.1" id="Layer_1" xmlns="http://www.w3.org/2000/svg" xmlns:xlink="http://www.w3.org/1999/xlink" x="0px" y="0px"
	 viewBox="0 0 1203.1 1200.1" enable-background="new 0 0 1203.1 1200.1" xml:space="preserve">
<path fill="none" stroke="#000000" stroke-width="10.7941" stroke-miterlimit="10" d="M235.4,904.8
	c-75-85.4-120.5-197.3-120.5-319.9c0-267.7,217-484.8,484.8-484.8s484.8,217,484.8,484.8c0,116.1-40.8,222.6-108.8,306.1"/>
<path id="SVGID_x5F_1_x5F_" fill="none" d="M1092.6,616.5c0-267.7-217-484.8-484.8-484.8S123,348.7,123,616.5s217,484.8,484.8,484.8
	S1092.6,884.2,1092.6,616.5z"/>
<text><textPath  xlink:href="#SVGID_x5F_1_x5F_" startOffset="82.361%">
<tspan  font-family="'FuturaStd-Heavy'" font-size="94.7457" letter-spacing="860">NADINE</tspan></textPath>
</text>
<g>
	<path fill="#B0AEA1" stroke="#000000" stroke-width="13.4927" stroke-miterlimit="10" d="M696.9,713.5l55.2-225.3l-9.5-20.9
		c0,0,19.7,55.6,86,55.6s69.8-56.8,69.8-56.8H605.3h-0.4H311.7c0,0,3.6,56.8,69.8,56.8s86-55.6,86-55.6l-12.2,20.9l55.2,225.3"/>
	<path fill="#FFFFFF" stroke="#000000" stroke-width="16.1912" stroke-miterlimit="10" d="M709.3,751.4c0,31.4-42.4,47.3-106.5,47.3
		s-104.1-16-104.1-47.3c0-51.6,40.1-56.8,104.1-56.8S709.3,690.3,709.3,751.4z"/>
	<line fill="none" stroke="#000000" stroke-width="16.1912" stroke-miterlimit="10" x1="455.4" y1="488.2" x2="510.6" y2="713.5"/>
	<ellipse cx="551.3" cy="736" rx="12.3" ry="9.1"/>
	<ellipse cx="658.9" cy="736" rx="12.3" ry="9.1"/>
	<path fill="none" stroke="#000000" stroke-width="16.1912" stroke-miterlimit="10" d="M515.3,565.9c0,0,26,30,58.4,0"/>
	<path fill="none" stroke="#000000" stroke-width="16.1912" stroke-miterlimit="10" d="M634.6,565.9c0,0,26,30,58.4,0"/>
	<path stroke="#000000" stroke-width="16.1912" stroke-miterlimit="10" d="M500.7,372.7c0.1-0.7,0-1.4-2.9-0.2
		c-8.5,3.7-27.3,16.4-27.3,44.6c0,37.6,19.7,47.8,19.7,47.8h20.7c0,0-33.3-18.7-29.9-50.9C484.4,381.9,499.5,381.5,500.7,372.7z"/>
	<path stroke="#000000" stroke-width="16.1912" stroke-miterlimit="10" d="M706.2,372.7c-0.1-0.7,0-1.4,2.9-0.2
		c8.5,3.7,27.3,16.4,27.3,44.6c0,37.6-19.7,47.8-19.7,47.8H696c0,0,33.3-18.7,29.9-50.9C722.5,381.9,707.4,381.5,706.2,372.7z"/>
	<path fill="#FFFFFF" stroke="#000000" stroke-width="16.1912" stroke-miterlimit="10" d="M663.2,794c0,21.1-16.8,29.5-59.9,29.5
		s-60.7-8.4-60.7-29.5H663.2z"/>
</g>
<circle fill="none" stroke="#000000" stroke-width="24.2868" stroke-miterlimit="10" cx="603.7" cy="600.7" r="581.5"/>
</svg>
