<?xml version="1.0" encoding="utf-8"?>
<!-- Generator: Adobe Illustrator 18.1.1, SVG Export Plug-In . SVG Version: 6.00 Build 0)  -->
<!DOCTYPE svg PUBLIC "-//W3C//DTD SVG 1.1//EN" "http://www.w3.org/Graphics/SVG/1.1/DTD/svg11.dtd">
<svg version="1.1" xmlns="http://www.w3.org/2000/svg" xmlns:xlink="http://www.w3.org/1999/xlink" x="0px" y="0px"
	 viewBox="0 0 116.3 131.5" enable-background="new 0 0 116.3 131.5" xml:space="preserve">
<g id="Layer_1">
	<path fill="#FFFFFF" stroke="#000000" stroke-width="1.5" stroke-miterlimit="10" d="M99,62.5H2.7c-0.4,0-0.7-0.3-0.7-0.7V3.1
		c0-0.4,0.3-0.7,0.7-0.7H99c0.4,0,0.7,0.3,0.7,0.7v58.7C99.7,62.2,99.4,62.5,99,62.5z"/>
	<polyline fill="none" stroke="#000000" stroke-width="1.5" stroke-miterlimit="10" points="91.8,12.5 83.9,22.9 81.5,21 64.1,42.3 
		51.5,29.7 46.5,34.9 31.7,21 24,29.6 19.2,25.8 7.5,42.3 	"/>
	<g>
		<path fill="#FFFFFF" stroke="#000000" stroke-width="1.5" stroke-miterlimit="10" d="M97.8,83.9c0.6,1.6,11.5,18.9,11.5,18.9
			s0.6,2.4,3.2,1.5s1.7-3.3,1.7-3.3l-11.5-18.9L97.8,83.9z"/>
		<path stroke="#000000" stroke-width="1.5" stroke-miterlimit="10" d="M107.9,59.2c0,7.8-5.8,14.2-14.2,14.2S79.6,67,79.6,59.2
			s5.8-13.2,14.2-13.2S107.9,51.3,107.9,59.2z"/>
		<path fill="#FFFFFF" stroke="#000000" stroke-width="1.5" stroke-miterlimit="10" d="M87,86.8C85.8,85.7,72.4,73,72.4,73
			s-1.6-1.9-3.5,0.1s-0.1,3.7-0.1,3.7l14.6,13.9L87,86.8z"/>
		<path fill="#FFFFFF" stroke="#000000" stroke-width="1.5" stroke-miterlimit="10" d="M85.9,107.8c0,1.7-0.1,20.1-0.1,20.1
			s-0.3,2.5,3.2,2.5c3.5,0,3.5-2.5,3.5-2.5l0.1-20.1L85.9,107.8z"/>
		<path fill="#FFFFFF" stroke="#000000" stroke-width="1.5" stroke-miterlimit="10" d="M96.8,107.9c0,1.7-0.1,20.1-0.1,20.1
			s-0.3,2.5,3.2,2.5s3.5-2.5,3.5-2.5l0.1-20.1L96.8,107.9z"/>
		<path fill="#B0AEA1" stroke="#000000" stroke-width="1.5" stroke-miterlimit="10" d="M93.9,74.5c13.7,0,15.7,38.3,15.7,38.3H79.9
			C79.9,112.8,80.2,74.5,93.9,74.5z"/>
		<path stroke="#000000" stroke-width="1.5" stroke-miterlimit="10" d="M89.4,75.7L88,79.8l5.9-3.2l5.8,3.2l-1.6-4.4
			c0,0-3.3-1.1-4.4-1.1C92.6,74.2,89.4,75.7,89.4,75.7z"/>
		<path stroke="#000000" stroke-width="1.5" stroke-miterlimit="10" d="M80.5,59.5c0,0-3.5,15.4,0.4,19.3c3.2,3.2,22.5,2.8,25.9,0.4
			c1.9-1.4,2.8-4.5,0.5-19.1L80.5,59.5z"/>
	</g>
</g>
<g id="Layer_2">
</g>
</svg>
