<?xml version="1.0" encoding="utf-8"?>
<!-- Generator: Adobe Illustrator 18.1.1, SVG Export Plug-In . SVG Version: 6.00 Build 0)  -->
<!DOCTYPE svg PUBLIC "-//W3C//DTD SVG 1.1//EN" "http://www.w3.org/Graphics/SVG/1.1/DTD/svg11.dtd">
<svg version="1.1" xmlns="http://www.w3.org/2000/svg" xmlns:xlink="http://www.w3.org/1999/xlink" x="0px" y="0px"
	 viewBox="0 0 72 131.5" enable-background="new 0 0 72 131.5" xml:space="preserve">
<g id="Layer_1">
	<path fill="#FFFFFF" stroke="#000000" stroke-width="1.5" stroke-miterlimit="10" d="M54.6,63.3H2.8C2.4,63.3,2,63,2,62.6V2.4
		C2,2,2.4,1.7,2.8,1.7h51.8c0.4,0,0.7,0.3,0.7,0.7v60.2C55.3,63,55,63.3,54.6,63.3z"/>
	<path fill="#FFFFFF" stroke="#000000" stroke-width="1.5" stroke-linecap="round" stroke-miterlimit="10" d="M16.9,18.3h-7
		c-0.4,0-0.7-0.3-0.7-0.7v-6.1c0-0.4,0.3-0.7,0.7-0.7h7c0.4,0,0.7,0.3,0.7,0.7v6.1C17.7,18,17.3,18.3,16.9,18.3z"/>
	<path fill="#FFFFFF" stroke="#000000" stroke-width="1.5" stroke-linecap="round" stroke-miterlimit="10" d="M16.9,30.3h-7
		c-0.4,0-0.7-0.3-0.7-0.7v-6.1c0-0.4,0.3-0.7,0.7-0.7h7c0.4,0,0.7,0.3,0.7,0.7v6.1C17.7,29.9,17.3,30.3,16.9,30.3z"/>
	<path fill="#FFFFFF" stroke="#000000" stroke-width="1.5" stroke-linecap="round" stroke-miterlimit="10" d="M16.9,42.2h-7
		c-0.4,0-0.7-0.3-0.7-0.7v-6.1c0-0.4,0.3-0.7,0.7-0.7h7c0.4,0,0.7,0.3,0.7,0.7v6.1C17.7,41.9,17.3,42.2,16.9,42.2z"/>
	<polyline fill="none" stroke="#214BA0" stroke-width="1.5" stroke-linecap="round" stroke-miterlimit="10" points="11,12.5 
		13.9,15.5 22.3,6 	"/>
	<polyline fill="none" stroke="#214BA0" stroke-width="1.5" stroke-linecap="round" stroke-miterlimit="10" points="11,24.8 
		13.9,27.7 22.3,18.3 	"/>
	<polyline fill="none" stroke="#214BA0" stroke-width="1.5" stroke-linecap="round" stroke-miterlimit="10" points="11,36.6 
		13.9,39.5 22.3,30.1 	"/>
	
		<line fill="none" stroke="#000000" stroke-width="1.5" stroke-linecap="round" stroke-miterlimit="10" x1="26.3" y1="13.4" x2="45.7" y2="13.4"/>
	
		<line fill="none" stroke="#000000" stroke-width="1.5" stroke-linecap="round" stroke-miterlimit="10" x1="26.3" y1="25.6" x2="45.7" y2="25.6"/>
	
		<line fill="none" stroke="#000000" stroke-width="1.5" stroke-linecap="round" stroke-miterlimit="10" x1="26.3" y1="37.9" x2="45.7" y2="37.9"/>
	<g>
		<path fill="#FFFFFF" stroke="#000000" stroke-width="1.5" stroke-miterlimit="10" d="M41.6,94.6c0.6,1.3,0.4,1.7,0.4,1.7
			s0,3.6-2.8,3.6c-2.8,0-2.8-2.5-2.8-2.5l0.7-3.4L41.6,94.6z"/>
		<g>
			<path fill="#FFFFFF" stroke="#000000" stroke-width="1.5" stroke-miterlimit="10" d="M61.7,95.1c0,1.7,0,2.3,0,2.3
				s-0.3,2.5,2.5,2.5c2.8,0,2.8-2.5,2.8-2.5L66.2,94L61.7,95.1z"/>
			<path fill="#B0AEA1" stroke="#000000" stroke-width="1.5" stroke-miterlimit="10" d="M41.5,80.7l-0.1,14.8H61
				c0,0,0.4-4.2,0.5-11.3l0-3.6l2.8,5.5L61.3,96l5.1-1l3.1-9.1L62.8,74l-7.2-0.4c-1.1-0.4-2.5-0.7-4-0.7h-0.4c-1.6,0-2.9,0.2-4,0.7
				L39.8,74l-7.6,11.4l3.5,9.5l5.1,1l-3-10l3.6-6.1L41.5,80.7z"/>
			<path fill="#FFFFFF" stroke="#000000" stroke-width="1.5" stroke-miterlimit="10" d="M65.1,57.5c0,7.9-5.4,14.3-13.3,14.3
				s-13.3-6.4-13.3-14.3s5.4-13.3,13.3-13.3S65.1,49.6,65.1,57.5z"/>
			<path fill="none" stroke="#000000" stroke-width="1.5" stroke-miterlimit="10" d="M45.1,62.5c0,0,1.1,4,6.3,4s6.3-4,6.3-4"/>
			<path fill="#FFFFFF" stroke="#000000" stroke-width="1.5" stroke-miterlimit="10" d="M43.5,107.6c0,1.7-3.5,19.8-3.5,19.8
				s-0.3,2.5,3.2,2.5c3.5,0,3.6-2.5,3.6-2.5l3.5-19.8L43.5,107.6z"/>
			<path fill="#FFFFFF" stroke="#000000" stroke-width="1.5" stroke-miterlimit="10" d="M51.5,107.6c0,1.7,3.3,19.8,3.3,19.8
				S54.5,130,58,130c3.5,0,3.6-2.5,3.6-2.5l-3.3-19.8L51.5,107.6z"/>
			<path d="M47,73L45.6,77l6-3.2l5.9,3.2l-1.6-4c0,0-3.3-1.1-4.5-1.1C50.2,71.9,47,73,47,73z"/>
			<path fill="#EFEFE7" stroke="#000000" stroke-width="1.5" stroke-miterlimit="10" d="M55.5,55.9c0,0,2.5,2.5,4.5,0"/>
			<path fill="none" stroke="#000000" stroke-width="1.5" stroke-miterlimit="10" d="M44.1,55.9c0,0,2.5,2.5,4.5,0"/>
			<polygon points="42.3,95.5 60.4,95.5 61.7,125.2 54.8,125.2 51.7,107.6 50,107.6 46.9,125.2 40,125.2 			"/>
			<path fill="none" stroke="#000000" stroke-width="1.5" stroke-miterlimit="10" d="M53.9,44.5c0,0,10,4.5,11.6-4"/>
			<path fill="none" stroke="#000000" stroke-width="1.5" stroke-miterlimit="10" d="M53.6,44.2c2.7,0.9,9.4,1.5,9.1-5.4"/>
			<path fill="none" stroke="#000000" stroke-width="1.5" stroke-miterlimit="10" d="M53.9,44.5c0,0,8.4,0,5.2-8"/>
			<polygon points="51.6,74.2 50.2,75.3 49.3,84.7 51.6,87 53.7,84.8 52.9,75.3 			"/>
		</g>
	</g>
</g>
<g id="Layer_2">
</g>
</svg>
