<?xml version="1.0" encoding="utf-8"?>
<!-- Generator: Adobe Illustrator 18.1.1, SVG Export Plug-In . SVG Version: 6.00 Build 0)  -->
<!DOCTYPE svg PUBLIC "-//W3C//DTD SVG 1.1//EN" "http://www.w3.org/Graphics/SVG/1.1/DTD/svg11.dtd">
<svg version="1.1" xmlns="http://www.w3.org/2000/svg" xmlns:xlink="http://www.w3.org/1999/xlink" x="0px" y="0px"
	 viewBox="0 0 375.5 221.2" enable-background="new 0 0 375.5 221.2" xml:space="preserve">
<g id="Layer_1">
	<g>
		<path fill="#FFFFFF" stroke="#000000" stroke-width="1.5" stroke-miterlimit="10" d="M360.7,89.6H220.1c-0.4,0-0.7-0.3-0.7-0.7V3
			c0-0.4,0.3-0.7,0.7-0.7h140.6c0.4,0,0.7,0.3,0.7,0.7v85.9C361.4,89.3,361.1,89.6,360.7,89.6z"/>
		<polyline fill="none" stroke="#214BA0" stroke-width="1.5" stroke-miterlimit="10" points="350,16.9 338.5,32.1 335,29.3 
			309.7,60.3 291.3,41.9 284.2,49.5 262.6,29.3 251.5,41.8 244.5,36.3 227.5,60.3 		"/>
	</g>
	<path fill="#FFFFFF" stroke="#000000" stroke-width="1.5" stroke-miterlimit="10" d="M79.1,91.7h-76c-0.4,0-0.7-0.3-0.7-0.7V2.8
		c0-0.4,0.3-0.7,0.7-0.7h76c0.4,0,0.7,0.3,0.7,0.7v88.1C79.8,91.3,79.5,91.7,79.1,91.7z"/>
	<path fill="#FFFFFF" stroke="#000000" stroke-width="1.5" stroke-linecap="round" stroke-miterlimit="10" d="M23.5,25.4H12.7
		c-0.4,0-0.7-0.3-0.7-0.7v-9.5c0-0.4,0.3-0.7,0.7-0.7h10.8c0.4,0,0.7,0.3,0.7,0.7v9.5C24.2,25,23.8,25.4,23.5,25.4z"/>
	<path fill="#FFFFFF" stroke="#000000" stroke-width="1.5" stroke-linecap="round" stroke-miterlimit="10" d="M23.5,42.7H12.7
		c-0.4,0-0.7-0.3-0.7-0.7v-9.5c0-0.4,0.3-0.7,0.7-0.7h10.8c0.4,0,0.7,0.3,0.7,0.7V42C24.2,42.4,23.8,42.7,23.5,42.7z"/>
	<path fill="#FFFFFF" stroke="#000000" stroke-width="1.5" stroke-linecap="round" stroke-miterlimit="10" d="M23.5,60.1H12.7
		c-0.4,0-0.7-0.3-0.7-0.7v-9.5c0-0.4,0.3-0.7,0.7-0.7h10.8c0.4,0,0.7,0.3,0.7,0.7v9.5C24.2,59.8,23.8,60.1,23.5,60.1z"/>
	<polyline fill="none" stroke="#214BA0" stroke-width="1.5" stroke-linecap="round" stroke-miterlimit="10" points="15.4,17.9 
		19.6,22.2 31.8,8.4 	"/>
	<polyline fill="none" stroke="#214BA0" stroke-width="1.5" stroke-linecap="round" stroke-miterlimit="10" points="15.4,35.6 
		19.6,39.9 31.8,26.2 	"/>
	<polyline fill="none" stroke="#214BA0" stroke-width="1.5" stroke-linecap="round" stroke-miterlimit="10" points="15.4,52.8 
		19.6,57 31.8,43.3 	"/>
	
		<line fill="none" stroke="#000000" stroke-width="1.5" stroke-linecap="round" stroke-miterlimit="10" x1="37.6" y1="19.2" x2="65.8" y2="19.2"/>
	
		<line fill="none" stroke="#000000" stroke-width="1.5" stroke-linecap="round" stroke-miterlimit="10" x1="37.6" y1="36.9" x2="65.8" y2="36.9"/>
	
		<line fill="none" stroke="#000000" stroke-width="1.5" stroke-linecap="round" stroke-miterlimit="10" x1="37.6" y1="56.7" x2="65.8" y2="56.7"/>
	<path fill="#FFFFFF" stroke="#000000" stroke-width="1.5" stroke-miterlimit="10" d="M208.2,2.1H89.8c-0.7,0-1.2,0.5-1.2,1v42.5
		c0,0.6,0.5,1,1.2,1H108c4.1,2.8,12.7,9.5,12.7,14.9V46.7h87.5c0.7,0,1.2-0.5,1.2-1V3.2C209.3,2.6,208.8,2.1,208.2,2.1z"/>
	<g>
		<path fill="#214BA0" d="M131.7,19.8h1.6l-1.1,5.9c-0.2,0.8-0.5,2,0.3,2c1.1,0,2.6-2.2,2.7-4.4c0.2-4-2.6-6.4-6.4-6.4
			c-4.1,0-7.1,3.1-7.1,7.3c0,4.4,3.3,7.3,7.5,7.3c1.9,0,3.4-0.4,4.4-1.1l1.6,1.2c-1.6,0.8-3.4,1.5-6.2,1.5c-4.9,0-8.9-3.8-8.9-9
			c0-5.1,3.9-9,8.8-9c2,0,3.9,0.6,5.4,2c1.6,1.4,2.6,3.1,2.6,5.3c0,1.9-0.5,3.6-1.4,4.8c-1.1,1.4-2.4,2-3.5,2
			c-0.6,0-1.1-0.5-1.2-1.4c-0.8,0.8-1.7,1.4-3.1,1.4c-2,0-3.9-1.9-3.9-4.2c0-2.8,1.8-5.4,4.7-5.4c1.2,0,2.1,0.4,3.1,1.6L131.7,19.8z
			 M127.7,27.6c2,0,2.9-1.7,3.1-3.4c0.2-1.8-0.8-3.1-2.3-3.1c-1.9,0-3.2,1.9-3.2,3.7C125.2,26.4,126.1,27.6,127.7,27.6z"/>
		<path fill="#214BA0" d="M144.2,31.8c0,0.7-0.6,1.3-1.3,1.3s-1.3-0.6-1.3-1.3c0-0.7,0.6-1.3,1.3-1.3S144.2,31.1,144.2,31.8z
			 M142,15.4h1.9v13.8H142V15.4z"/>
		<path fill="#214BA0" d="M154.8,24.2c-2.1-0.9-4.1-2-4.1-4.6c0-2.4,1.8-4,4.1-4.3v-2.4h1.5v2.4c1.6,0.2,2.9,1.2,3.6,2.6l-1.5,1
			c-0.5-0.8-1.1-1.6-2.1-1.8v5.7c2.3,1,4.3,2.1,4.3,4.9c0,2.6-1.8,4.7-4.3,5.2v2.5h-1.5V33c-2.5-0.1-4.5-2-5-4.5l1.9-0.5
			c0.2,1.6,1.5,3,3.1,3.2V24.2z M154.8,17.1c-1.2,0.2-2.1,1.3-2.1,2.6s1.1,2,2.1,2.4V17.1z M156.3,31c1.4-0.5,2.3-1.8,2.3-3.3
			c0-1.5-1.1-2.3-2.3-2.9V31z"/>
	</g>
	<g>
		<path fill="#B0AEA1" d="M273.8,172.2l0.3,13.4l0,31.9l-12.6-0.1c0,0,0.1-15,0.4-22.8c0.1-1.5-2.3-5.2-2.3-5.2l-4-5.2l13.1-8.2
			L273.8,172.2z"/>
		<path fill="none" stroke="#000000" stroke-width="1.5" stroke-miterlimit="10" d="M274.9,180.7l0,4.4l0,31.9l-12.6-0.1
			c0,0,0-14.3,0.4-22.8c0.1-1.5-4.3-5.6-4.3-5.6"/>
		<polygon points="263,210.9 274.7,211 275,217 262.5,217 		"/>
		<polygon fill="#B0AEA1" points="152.4,197.5 151.4,214.6 140.2,214.6 142.7,158.5 142.3,152.1 155.7,157.4 155.3,166.4 		"/>
		<polyline fill="none" stroke="#000000" stroke-width="1.5" stroke-miterlimit="10" points="141.5,162.7 140.2,215.6 151.4,215.6 
					"/>
		<polygon points="140.4,216.1 152.1,215.6 151.4,210.5 140.4,210.5 		"/>
		<g>
			<path fill="#FFFFFF" d="M255.7,183.1c-0.9,0.5-1.8,0.9-2.9,1.4"/>
			<path fill="#FFFFFF" d="M235,182.4c0,0-4.7,5.5-2.5,7.2c2.2,1.7,5.2-5.6,5.2-5.6"/>
			<path fill="#FFFFFF" d="M243.3,186.6c0,0-0.9,6.7,1.9,6.9c2.8,0.2,1.3-7.1,1.3-7.1"/>
			<path fill="#FFFFFF" d="M255.5,182.8c0,0,0.1,0.1,0.2,0.3"/>
			<path fill="#FFFFFF" d="M255.7,183.1c0.9,1.2,4.3,6.2,2,7.1c-2.4,0.9-4.5-4.7-4.9-5.7"/>
			<path fill="#FFFFFF" d="M252.7,184.3c0,0,0,0.1,0.1,0.1"/>
		</g>
		<path fill="#B0AEA1" d="M157.1,85.8l126.6,1c0,0,4.9-1.3,4.6,5.9c-0.3,7.2-1.6,50.1,0,52l-0.7,74.8l-15.2,0.2l-0.3-34.1
			c0,0,1.3-1.4-8.2-5.4c-11.5-4.8-14-13.3-16.3-13.4c-3-0.2-21.5,1.5-79.6,1.2l-1.9,50.5l-15.9,1l-0.7-52.2c0,0-18-7.3-23.5-14.8
			c-4-5.5-9.3-21.3-9.3-29.6c0-9.2,19.6-36.9,19.6-36.9L157.1,85.8z"/>
		<path fill="none" d="M289.6,89c0,0,21.3-15.9,11.2,45.9c0,0-1.7,9.8,0,22.6c0,0-9,12.4,0,21"/>
		<path fill="none" d="M309.4,170.9c0-15.4-7.8-13.4-7.8-13.4s3.9,3.6,2.4,13.8"/>
		<path fill="none" stroke="#000000" stroke-width="1.5" stroke-miterlimit="10" d="M140.8,85.8l142.9,0.5c0,0,5.1-0.5,4.6,5.9
			c-0.5,7.1-0.7,127.3-0.7,127.3l-15.2,0.2l-0.3-24.7c0,0-1.8-10-13-18c-18.3-13-20.2-24.6-21.5-33.8"/>
		<path fill="none" stroke="#000000" stroke-width="1.5" stroke-miterlimit="10" d="M248.7,168l-80.7,0.1l-1.9,51l-15.9,0l-0.7-51.7
			c0,0-13.9-5.4-20-11.6c-5.5-5.5-10.8-16.3-10.8-25.8"/>
		<path fill="none" stroke="#000000" stroke-width="1.5" stroke-miterlimit="10" d="M224.1,167.3c0.1,0.8,5.3,15.5,18.7,17
			c13.8,1.6,19.9-6.4,19.5-5"/>
		<path fill="none" stroke="#000000" stroke-width="1.5" stroke-miterlimit="10" d="M235,181.4c0,0-4.7,5.5-2.5,7.2
			c2.2,1.7,5.2-5.6,5.2-5.6"/>
		<path fill="none" stroke="#000000" stroke-width="1.5" stroke-miterlimit="10" d="M243.3,185.1c0,0-0.9,7.1,1.9,7.4
			s1.3-7.5,1.3-7.5"/>
		<path fill="none" stroke="#000000" stroke-width="1.5" stroke-miterlimit="10" d="M252.7,184.3c0,0,2.3,6.8,4.9,5.8
			c2.6-1-2.2-7.3-2.2-7.3"/>
		<path fill="none" stroke="#000000" stroke-width="1.5" stroke-miterlimit="10" d="M288.1,88.5c0,0,17.4,6.7,12.7,45.9
			c0,0-1.7,9.8,0,22.6c0,0-9,12.4,0,21"/>
		<path fill="none" stroke="#000000" stroke-width="1.5" stroke-miterlimit="10" d="M309.4,170.4c0-15.4-7.8-13.4-7.8-13.4
			s3.9,3.6,2.4,13.8"/>
		<polygon points="287.8,219.5 272.1,219.7 272.8,213.3 288,213 		"/>
		<polygon points="150.4,219.1 167.1,219.2 166.8,212.9 150.2,213 		"/>
		<path d="M245.8,193"/>
		<path fill="#B0AEA1" stroke="#000000" stroke-width="1.5" stroke-miterlimit="10" d="M134.3,111.8l9.2-37.4l-1.6-3.5
			c0,0,3.3,9.2,14.3,9.2c11,0,11.6-9.4,11.6-9.4h-48.6h-0.1H70.5c0,0,0.6,9.4,11.6,9.4s14.3-9.2,14.3-9.2l-2,3.5l9.2,37.4"/>
		<path fill="#FFFFFF" stroke="#000000" stroke-width="1.5" stroke-miterlimit="10" d="M136.4,118c0,5.2-7,7.8-17.7,7.8
			s-17.3-2.6-17.3-7.8c0-8.5,6.6-9.4,17.3-9.4S136.4,107.9,136.4,118z"/>
		<line fill="none" stroke="#000000" stroke-width="1.5" stroke-miterlimit="10" x1="94.3" y1="74.4" x2="103.5" y2="111.8"/>
		<ellipse cx="110.2" cy="115.5" rx="2" ry="1.5"/>
		<ellipse cx="128" cy="115.5" rx="2" ry="1.5"/>
		<path fill="none" stroke="#000000" stroke-width="1.5" stroke-miterlimit="10" d="M104.2,87.3c0,0,4.3,5,9.7,0"/>
		<path fill="none" stroke="#000000" stroke-width="1.5" stroke-miterlimit="10" d="M124,87.3c0,0,4.3,5,9.7,0"/>
		<path stroke="#000000" stroke-width="1.5" stroke-miterlimit="10" d="M101.8,55.3c0-0.1,0-0.2-0.5,0c-1.4,0.6-4.5,2.7-4.5,7.4
			c0,6.2,3.3,7.9,3.3,7.9h3.4c0,0-5.5-3.1-5-8.4C99.1,56.8,101.6,56.7,101.8,55.3z"/>
		<path stroke="#000000" stroke-width="1.5" stroke-miterlimit="10" d="M135.9,55.3c0-0.1,0-0.2,0.5,0c1.4,0.6,4.5,2.7,4.5,7.4
			c0,6.2-3.3,7.9-3.3,7.9h-3.4c0,0,5.5-3.1,5-8.4C138.6,56.8,136.1,56.7,135.9,55.3z"/>
		<path fill="#FFFFFF" stroke="#000000" stroke-width="1.5" stroke-miterlimit="10" d="M128.8,125.1c0,3.5-2.8,4.9-9.9,4.9
			c-7.2,0-10.1-1.4-10.1-4.9H128.8z"/>
	</g>
	<g>
		<path fill="#FFFFFF" stroke="#000000" stroke-width="1.5" stroke-miterlimit="10" d="M344.4,144.6c0.9,2.5,18.4,30.2,18.4,30.2
			s1,3.9,5.1,2.4c4.1-1.5,2.7-5.3,2.7-5.3l-18.4-30.2L344.4,144.6z"/>
		<path stroke="#000000" stroke-width="1.5" stroke-miterlimit="10" d="M328,89.4c0,0-15,44.2-8.8,50.4c10.5,10.3,30.3,9.1,37.8,0.9
			c3.5-3.8,6.2-3.7,2.6-32.7L328,89.4z"/>
		<path fill="#FFFFFF" stroke="#000000" stroke-width="1.5" stroke-miterlimit="10" d="M359.4,106.6c1.8,12.3-8.5,22.5-20.9,22.5
			c-12.4,0-20.9-10.1-20.9-22.5s8.5-20.9,20.9-20.9C349.9,85.7,357.7,94.9,359.4,106.6z"/>
		<path fill="#FFFFFF" stroke="#000000" stroke-width="1.5" stroke-miterlimit="10" d="M328,139.7c-2.5,1.1-29.4,13-29.4,13
			s-3.8,1.3-2,5.3c1.8,4,5.4,2.4,5.4,2.4l29.4-13L328,139.7z"/>
		<path fill="#FFFFFF" stroke="#000000" stroke-width="1.5" stroke-miterlimit="10" d="M327.7,182.9c0,2.7-0.2,32.2-0.2,32.2
			s-0.5,4,5.1,4s5.6-4,5.6-4l0.2-32.2L327.7,182.9z"/>
		<path fill="#FFFFFF" stroke="#000000" stroke-width="1.5" stroke-miterlimit="10" d="M336.6,182.9c0,2.7-0.2,32.2-0.2,32.2
			s-0.5,4,5.1,4c5.6,0,5.6-4,5.6-4l0.2-32.2L336.6,182.9z"/>
		<path fill="#B0AEA1" stroke="#000000" stroke-width="1.5" stroke-miterlimit="10" d="M338.2,129.5c21.9,0,16.7,61.2,16.7,61.2h-35
			C319.9,190.8,316.3,129.5,338.2,129.5z"/>
		<path d="M331,131.5l-2.3,8.3l9.4-6.9l9.3,6.9l-2.5-8.9c0,0-5.3-1.8-7.1-1.8C336.1,129.1,331,131.5,331,131.5z"/>
		<path fill="none" stroke="#000000" stroke-width="1.5" stroke-miterlimit="10" d="M324.2,106.2c0,0,4,4,7.2,0"/>
		<path stroke="#000000" stroke-width="1.5" stroke-miterlimit="10" d="M339.5,145c-8.7,0.1-21.8,4.8-6.9-34.3
			c2.7-7.1-13.5-7.9-10.6-17.6c0,0,25-19.8,37.7,11.2C377.7,148.6,351.1,144.9,339.5,145z"/>
		<path fill="none" stroke="#000000" stroke-width="1.5" stroke-miterlimit="10" d="M320.3,118.1c0,0,4.7,3.1,8.7,0"/>
	</g>
	<g>
		<path fill="#FFFFFF" stroke="#000000" stroke-width="1.5" stroke-miterlimit="10" d="M52.3,192.1c0.8,2.6,8.9,25,8.9,25
			s0.6,4,6,2.4c5.4-1.6,4.3-5.4,4.3-5.4l-8.9-25L52.3,192.1z"/>
		<polygon points="47,179 59.2,214.1 71.2,210.5 59,175.4 		"/>
		<path fill="#FFFFFF" stroke="#000000" stroke-width="1.5" stroke-miterlimit="10" d="M40.3,189.9c0,2.7-0.2,26.3-0.2,26.3
			s-0.5,4,5.1,4s5.6-4,5.6-4L51,190L40.3,189.9z"/>
		<rect x="39" y="175.9" width="12.1" height="36.9"/>
		<path fill="#FFFFFF" stroke="#000000" stroke-width="1.5" stroke-miterlimit="10" d="M48.4,158.9c3.3-1.7,1.3-0.4,28-21.7
			c0,0,3.7-1.4,1.8-5.4s-5.5-2.1-5.5-2.1l-26.9,23.8L48.4,158.9z"/>
		<path fill="#B0AEA1" stroke="#000000" stroke-width="1.5" stroke-miterlimit="10" d="M50.1,157.5c2.4-1.3,22.2-16.9,22.2-16.9
			l-3.9-7.4l-21,16.9"/>
		<polygon fill="#B0AEA1" stroke="#000000" stroke-width="1.5" stroke-miterlimit="10" points="38.7,131 37.8,180 61.1,180 
			52.2,134.3 		"/>
		<path d="M41.4,129.6l0.1,4.2l16.4,5.2l-2.5-8.1c0,0-5-0.2-6.8-0.2C46.8,130.7,41.4,129.6,41.4,129.6z"/>
		<path fill="#FFFFFF" stroke="#000000" stroke-width="1.5" stroke-miterlimit="10" d="M67.4,108.2c0,12.6-8.6,22.8-21.2,22.8
			s-21.2-10.2-21.2-22.8S33.7,87,46.2,87S67.4,95.6,67.4,108.2z"/>
		<path d="M38.7,129.6l0.1,4.2l16.4,5.2l-2.5-8.1c0,0-5-0.2-6.8-0.2C44.1,130.7,38.7,129.6,38.7,129.6z"/>
		<path fill="none" stroke="#000000" stroke-width="1.5" stroke-miterlimit="10" d="M59.4,107.4c0,0-4-4-7.2,0"/>
		<path fill="none" stroke="#000000" stroke-width="1.5" stroke-miterlimit="10" d="M49.7,87.6c0,0,15.9,7.2,18.4-6.3"/>
		<path fill="none" stroke="#000000" stroke-width="1.5" stroke-miterlimit="10" d="M49.2,87.2c4.2,1.4,15,2.4,14.4-8.7"/>
		<path fill="none" stroke="#000000" stroke-width="1.5" stroke-miterlimit="10" d="M49.7,87.6c0,0,13.3,0.1,8.1-12.7"/>
		<path fill="none" stroke="#000000" stroke-width="1.5" stroke-miterlimit="10" d="M56.8,118.6c0,0,4.7,3.1,8.7,0"/>
		<path fill="#FFFFFF" stroke="#000000" stroke-width="1.5" stroke-miterlimit="10" d="M43.6,147c0,2.7-6.9,30.2-6.9,30.2
			s-1.4,5.8-5.8,5.8s-4.4-4-4.4-4l11.9-36.2"/>
		<polyline fill="#B0AEA1" stroke="#000000" stroke-width="1.5" stroke-miterlimit="10" points="45.3,145.6 39,170.9 29.6,170.9 
			38.8,133.8 		"/>
	</g>
</g>
<g id="Layer_2">
</g>
</svg>
