<?xml version="1.0" encoding="utf-8"?>
<!-- Generator: Adobe Illustrator 18.1.1, SVG Export Plug-In . SVG Version: 6.00 Build 0)  -->
<!DOCTYPE svg PUBLIC "-//W3C//DTD SVG 1.1//EN" "http://www.w3.org/Graphics/SVG/1.1/DTD/svg11.dtd">
<svg version="1.1" id="Layer_1" xmlns="http://www.w3.org/2000/svg" xmlns:xlink="http://www.w3.org/1999/xlink" x="0px" y="0px"
	 viewBox="0 0 805.8 544.7" enable-background="new 0 0 805.8 544.7" xml:space="preserve">
<rect x="0.7" y="39.6" fill="#EFEFE7" width="805.8" height="505.4"/>
<rect x="0.7" y="38.2" fill="#FFFFFF" width="805.8" height="44.7"/>
<rect x="0.7" y="79.6" width="805.8" height="36.2"/>
<rect x="0.7" y="0.4" fill="#E3E3E8" width="805.8" height="37.8"/>
<path fill="#FFFFFF" d="M111.5,116.6H19.8c0-25.3,20.5-45.8,45.8-45.8S111.5,91.3,111.5,116.6z"/>
<circle fill="#FFFFFF" stroke="#000000" stroke-width="1.5012" stroke-miterlimit="10" cx="65.7" cy="116.6" r="45.8"/>
<path fill="none" stroke="#000000" stroke-width="0.6672" stroke-miterlimit="10" d="M36.7,140.6c-5.9-6.7-9.5-15.6-9.5-25.2
	c0-21.1,17.1-38.2,38.2-38.2s38.2,17.1,38.2,38.2c0,9.2-3.2,17.6-8.6,24.1"/>
<path id="SVGID_x5F_1_x5F__9_" fill="none" d="M104.2,117.9c0-21.1-17.1-38.2-38.2-38.2s-38.2,17.1-38.2,38.2s17.1,38.2,38.2,38.2
	S104.2,139,104.2,117.9z"/>
<text><textPath  xlink:href="#SVGID_x5F_1_x5F__9_" startOffset="82.361%">
<tspan  font-family="'FuturaStd-Heavy'" font-size="7.4694" letter-spacing="860">NADINE</tspan></textPath>
</text>
<g>
	<path fill="#B0AEA1" stroke="#000000" stroke-width="0.834" stroke-miterlimit="10" d="M73,125.5l4.4-17.8l-0.7-1.6
		c0,0,1.6,4.4,6.8,4.4s5.5-4.5,5.5-4.5H65.8h0H42.7c0,0,0.3,4.5,5.5,4.5s6.8-4.4,6.8-4.4l-1,1.6l4.4,17.8"/>
	<path fill="#FFFFFF" stroke="#000000" stroke-width="1.0008" stroke-miterlimit="10" d="M74,128.5c0,2.5-3.3,3.7-8.4,3.7
		s-8.2-1.3-8.2-3.7c0-4.1,3.2-4.5,8.2-4.5S74,123.7,74,128.5z"/>
	<line fill="none" stroke="#000000" stroke-width="1.0008" stroke-miterlimit="10" x1="54" y1="107.7" x2="58.3" y2="125.5"/>
	<ellipse cx="61.6" cy="127.3" rx="1" ry="0.7"/>
	<ellipse cx="70" cy="127.3" rx="1" ry="0.7"/>
	<path fill="none" stroke="#000000" stroke-width="1.0008" stroke-miterlimit="10" d="M58.7,113.9c0,0,2.1,2.4,4.6,0"/>
	<path fill="none" stroke="#000000" stroke-width="1.0008" stroke-miterlimit="10" d="M68.1,113.9c0,0,2.1,2.4,4.6,0"/>
	<path stroke="#000000" stroke-width="1.0008" stroke-miterlimit="10" d="M57.6,98.6c0-0.1,0-0.1-0.2,0c-0.7,0.3-2.2,1.3-2.2,3.5
		c0,3,1.6,3.8,1.6,3.8h1.6c0,0-2.6-1.5-2.4-4C56.3,99.4,57.5,99.3,57.6,98.6z"/>
	<path stroke="#000000" stroke-width="1.0008" stroke-miterlimit="10" d="M73.8,98.6c0-0.1,0-0.1,0.2,0c0.7,0.3,2.2,1.3,2.2,3.5
		c0,3-1.6,3.8-1.6,3.8H73c0,0,2.6-1.5,2.4-4C75.1,99.4,73.9,99.3,73.8,98.6z"/>
	<path fill="#FFFFFF" stroke="#000000" stroke-width="1.0008" stroke-miterlimit="10" d="M70.4,131.9c0,1.7-1.3,2.3-4.7,2.3
		c-3.4,0-4.8-0.7-4.8-2.3H70.4z"/>
</g>
<circle fill="#DF6F65" cx="19.8" cy="20.8" r="7.4"/>
<circle fill="#E5BB45" cx="46.2" cy="20.8" r="7.4"/>
<circle fill="#66C189" cx="72.6" cy="20.8" r="7.4"/>
<path fill="#FFFFFF" d="M795.7,31.7H115.1c-2,0-3.6-1.6-3.6-3.6V13.5c0-2,1.6-3.6,3.6-3.6h680.6c2,0,3.6,1.6,3.6,3.6v14.6
	C799.3,30.1,797.7,31.7,795.7,31.7z"/>
<g>
	<path d="M784.6,17h1.6V20h3.1v1.6h-3.1v3.1h-1.6v-3.1h-3.1V20h3.1V17z"/>
</g>
<path fill="none" stroke="#000000" stroke-width="1.5012" stroke-miterlimit="10" d="M747.8,67.7v3.6c0,0.3-0.2,0.5-0.5,0.5h-16.6
	c-0.3,0-0.5-0.2-0.5-0.5V49.4c0-0.3,0.2-0.5,0.5-0.5h16.6c0.3,0,0.5,0.2,0.5,0.5v3.4"/>
<polyline fill="none" stroke="#000000" stroke-width="1.5012" stroke-miterlimit="10" points="733.9,61 743,61 749.6,61 744,66.6 
	"/>
<polyline fill="none" stroke="#000000" stroke-width="1.5012" stroke-miterlimit="10" points="733.9,59 743,59 749.6,59 744,53.4 
	"/>
<g>
	<rect x="158.4" y="57.2" fill="none" width="841.3" height="87.5"/>
	<text transform="matrix(1 0 0 1 158.3639 65.6592)"><tspan x="0" y="0" fill="#214BA0" font-family="'FuturaStd-Heavy'" font-size="10" letter-spacing="4">staff view </tspan><tspan x="99.1" y="0" font-family="'FuturaStd-Heavy'" font-size="10" letter-spacing="4">/ member view</tspan></text>
</g>
<g>
	<rect x="157.3" y="186" fill="none" width="523.3" height="17"/>
	<text transform="matrix(1 0 0 1 157.2521 195.2637)" font-family="'FuturaStd-Bold'" font-size="11.1071" letter-spacing="4">membership by day</text>
</g>
<rect x="169.5" y="224.8" fill="none" width="139.9" height="14.8"/>
<text transform="matrix(1 0 0 1 169.4837 232.3091)"><tspan x="0" y="0" font-family="'FuturaStd-Bold'" font-size="9" letter-spacing="2">from: </tspan><tspan x="51.3" y="0" fill="#214BA0" font-family="'FuturaStd-Bold'" font-size="9" letter-spacing="2">2015-01-02</tspan></text>
<rect x="324.7" y="224.8" fill="none" width="139.9" height="14.8"/>
<text transform="matrix(1 0 0 1 324.6862 232.3091)"><tspan x="0" y="0" font-family="'FuturaStd-Bold'" font-size="9" letter-spacing="2">to: </tspan><tspan x="30.5" y="0" fill="#214BA0" font-family="'FuturaStd-Bold'" font-size="9" letter-spacing="2">2015-02-02</tspan></text>
<path fill="none" stroke="#000000" stroke-width="1.6609" stroke-miterlimit="10" d="M439.7,241.6h-86.6c-0.4,0-0.7-0.3-0.7-0.7v-22
	c0-0.4,0.3-0.7,0.7-0.7h86.6c0.4,0,0.7,0.3,0.7,0.7v22C440.5,241.3,440.1,241.6,439.7,241.6z"/>
<path fill="none" stroke="#000000" stroke-width="1.5652" stroke-miterlimit="10" d="M307.8,241.6h-92.4c-0.4,0-0.7-0.3-0.7-0.7v-22
	c0-0.4,0.3-0.7,0.7-0.7h92.4c0.4,0,0.7,0.3,0.7,0.7v22C308.5,241.3,308.2,241.6,307.8,241.6z"/>
<path fill="none" stroke="#000000" stroke-width="1.9386" stroke-miterlimit="10" d="M528.7,241.2h-61.1c-0.4,0-0.7-0.3-0.7-0.7
	v-21.3c0-0.4,0.3-0.7,0.7-0.7h61.1c0.4,0,0.7,0.3,0.7,0.7v21.3C529.4,240.8,529.1,241.2,528.7,241.2z"/>
<rect x="474.9" y="226.5" fill="none" width="278.4" height="22.9"/>
<text transform="matrix(1 0 0 1 474.9261 232.3184)" font-family="'FuturaStd-Bold'" font-size="6.9739" letter-spacing="2">SET PAID</text>
<line fill="none" stroke="#000000" stroke-width="1.4678" stroke-miterlimit="10" x1="232.9" y1="302.4" x2="657.2" y2="302.4"/>
<line fill="none" stroke="#000000" stroke-width="1.4678" stroke-miterlimit="10" x1="232.9" y1="357.6" x2="657.2" y2="357.6"/>
<line fill="none" stroke="#000000" stroke-width="1.4678" stroke-miterlimit="10" x1="232.9" y1="412.8" x2="657.2" y2="412.8"/>
<line fill="none" stroke="#000000" stroke-width="1.4678" stroke-miterlimit="10" x1="232.9" y1="467.9" x2="657.2" y2="467.9"/>
<line fill="none" stroke="#000000" stroke-width="1.4678" stroke-miterlimit="10" x1="232.9" y1="523.1" x2="657.2" y2="523.1"/>
<rect x="155.9" y="298.5" fill="none" width="73.9" height="12.6"/>
<text transform="matrix(1 0 0 1 155.9335 304.3907)" font-family="'FuturaStd-Bold'" font-size="7.0718" letter-spacing="2">180</text>
<rect x="155.9" y="353.7" fill="none" width="73.9" height="12.6"/>
<text transform="matrix(1 0 0 1 155.9335 359.5509)" font-family="'FuturaStd-Bold'" font-size="7.0718" letter-spacing="2">170</text>
<rect x="155.9" y="409.6" fill="none" width="73.9" height="12.6"/>
<text transform="matrix(1 0 0 1 155.9335 415.4989)" font-family="'FuturaStd-Bold'" font-size="7.0718" letter-spacing="2">169</text>
<rect x="155.9" y="464.8" fill="none" width="73.9" height="12.6"/>
<text transform="matrix(1 0 0 1 155.9335 470.659)" font-family="'FuturaStd-Bold'" font-size="7.0718" letter-spacing="2">162</text>
<rect x="155.9" y="519.9" fill="none" width="73.9" height="12.6"/>
<text transform="matrix(1 0 0 1 155.9335 525.8192)" font-family="'FuturaStd-Bold'" font-size="7.0718" letter-spacing="2">154</text>
<line fill="none" stroke="#ED2326" stroke-miterlimit="10" x1="235.5" y1="386.7" x2="659.8" y2="386.7"/>
<polyline fill="none" stroke="#214BA0" stroke-miterlimit="10" points="231,525 234.1,531.3 239.6,476.1 244.3,431.8 253,431.8 
	253,494.6 257.7,480.5 262.4,488.3 262.4,508.8 267.1,509.6 267.1,536.9 272.6,516.4 278.9,392 278.9,374.1 286.7,366.2 
	286.7,346.6 293.8,366.2 293.8,330.5 299.3,333.7 299.3,320.6 299.3,299.4 307.2,299.4 307.2,308.8 314.2,292.3 323.7,352.1 
	329.2,343.1 335.5,398.3 344.9,378 350.4,388.8 350.4,343.1 357.5,373.3 362.2,353.6 368.5,385.7 373.2,379.6 373.2,403.1 
	378.7,405.5 378.7,415.7 386.5,392 393.6,430.6 404.6,430.6 404.6,411 410.9,425.1 414,398.3 422.7,385.7 422.7,423.1 434.5,433.8 
	439.2,419.9 439.2,443.2 448.6,437.2 454.9,402.6 459.6,437.2 464.3,412.1 473.8,422.3 473.8,401.8 477.6,412.9 481.6,396.3 
	481.6,413.6 487.9,399.5 487.9,418.4 487.9,424.6 492.6,412.1 502,415.2 502,404.2 507.5,403.4 507.5,391.6 513,322.9 518.5,306 
	518.5,337.1 525.6,319.8 535,321.7 542.1,332.7 543.2,320.7 545.3,337.5 553.1,323.3 559.4,392.5 559.4,402 567.3,380.1 
	574.3,380.1 574.3,403.5 580.6,411.5 580.6,382.3 591.6,407.6 598.7,407.6 602.6,436.5 609.7,415.8 615.2,390.1 615.2,368.7 
	626.2,383.8 632.5,346.7 632.5,338.1 641.1,343.6 643.5,390.1 "/>
<g>
	<rect x="158.4" y="94.9" fill="none" width="841.3" height="19"/>
	<text transform="matrix(1 0 0 1 158.3639 103.5396)"><tspan x="0" y="0" fill="#FFFFFF" font-family="'FuturaStd-Medium'" font-size="10" letter-spacing="4">to do  members list  activity  billing  </tspan><tspan x="349.2" y="0" fill="#214BA0" font-family="'FuturaStd-Bold'" font-size="10" letter-spacing="4">stats</tspan><tspan x="400" y="0" fill="#FFFFFF" font-family="'FuturaStd-Medium'" font-size="10" letter-spacing="4">  logs  lists</tspan></text>
</g>
<g>
	<rect x="158.4" y="132" fill="none" width="841.3" height="27.2"/>
	<text transform="matrix(1 0 0 1 158.3636 138.9646)"><tspan x="0" y="0" font-family="'FuturaStd-Medium'" font-size="8" letter-spacing="2">daily logs | neghborhoods | monthly members | membership history | </tspan><tspan x="491.1" y="0" font-family="'FuturaStd-Book'" font-size="8" letter-spacing="2">gender balance</tspan><tspan x="600.8" y="0" font-family="'FuturaStd-Medium'" font-size="8" letter-spacing="2"> |  </tspan><tspan x="0" y="13.6" fill="#214BA0" font-family="'FuturaStd-Bold'" font-size="8" letter-spacing="2">membership days</tspan><tspan x="123.5" y="13.6" font-family="'FuturaStd-Medium'" font-size="8" letter-spacing="2"> |  history graphs  |  income graph  |  member graph </tspan></text>
</g>
</svg>
