<?xml version="1.0" encoding="utf-8"?>
<!-- Generator: Adobe Illustrator 18.1.1, SVG Export Plug-In . SVG Version: 6.00 Build 0)  -->
<!DOCTYPE svg PUBLIC "-//W3C//DTD SVG 1.1//EN" "http://www.w3.org/Graphics/SVG/1.1/DTD/svg11.dtd">
<svg version="1.1" id="Layer_1" xmlns="http://www.w3.org/2000/svg" xmlns:xlink="http://www.w3.org/1999/xlink" x="0px" y="0px"
	 viewBox="0 0 805.8 544.7" enable-background="new 0 0 805.8 544.7" xml:space="preserve">
<rect x="0" y="39.3" fill="#EFEFE7" width="805.8" height="505.4"/>
<path fill="#FFFFFF" stroke="#000000" stroke-width="2" stroke-miterlimit="10" d="M680.2,503.2H566.6c-2,0-3.6-1.6-3.6-3.6V239.9
	c0-2,1.6-3.6,3.6-3.6h113.5c2,0,3.6,1.6,3.6,3.6v259.7C683.8,501.6,682.1,503.2,680.2,503.2z"/>
<path fill="#FFFFFF" stroke="#000000" stroke-width="2" stroke-miterlimit="10" d="M538.2,503.2H162.3c-2,0-3.6-1.6-3.6-3.6V239.9
	c0-2,1.6-3.6,3.6-3.6h375.9c2,0,3.6,1.6,3.6,3.6v259.7C541.8,501.6,540.2,503.2,538.2,503.2z"/>
<rect x="0" y="37.8" fill="#FFFFFF" width="805.8" height="79.9"/>
<rect x="0" y="0" fill="#E3E3E8" width="805.8" height="37.8"/>
<path fill="none" stroke="#000000" stroke-width="0.6672" stroke-miterlimit="10" d="M35.9,138.2c-5.9-6.7-9.5-15.6-9.5-25.2
	c0-21.1,17.1-38.2,38.2-38.2s38.2,17.1,38.2,38.2c0,9.2-3.2,17.6-8.6,24.1"/>
<path id="SVGID_x5F_1_x5F_" fill="none" d="M103.5,115.5c0-21.1-17.1-38.2-38.2-38.2s-38.2,17.1-38.2,38.2s17.1,38.2,38.2,38.2
	S103.5,136.6,103.5,115.5z"/>
<text><textPath  xlink:href="#SVGID_x5F_1_x5F_" startOffset="82.361%">
<tspan  font-family="'FuturaStd-Heavy'" font-size="7.4694" letter-spacing="860">NADINE</tspan></textPath>
</text>
<g>
	<path fill="#B0AEA1" stroke="#000000" stroke-width="0.834" stroke-miterlimit="10" d="M72.3,123.1l4.4-17.8l-0.7-1.6
		c0,0,1.6,4.4,6.8,4.4s5.5-4.5,5.5-4.5H65.1h0H41.9c0,0,0.3,4.5,5.5,4.5s6.8-4.4,6.8-4.4l-1,1.6l4.4,17.8"/>
	<path fill="#FFFFFF" stroke="#000000" stroke-width="1.0008" stroke-miterlimit="10" d="M73.3,126.1c0,2.5-3.3,3.7-8.4,3.7
		s-8.2-1.3-8.2-3.7c0-4.1,3.2-4.5,8.2-4.5S73.3,121.3,73.3,126.1z"/>
	<line fill="none" stroke="#000000" stroke-width="1.0008" stroke-miterlimit="10" x1="53.3" y1="105.4" x2="57.6" y2="123.1"/>
	<ellipse cx="60.8" cy="124.9" rx="1" ry="0.7"/>
	<ellipse cx="69.3" cy="124.9" rx="1" ry="0.7"/>
	<path fill="none" stroke="#000000" stroke-width="1.0008" stroke-miterlimit="10" d="M58,111.5c0,0,2.1,2.4,4.6,0"/>
	<path fill="none" stroke="#000000" stroke-width="1.0008" stroke-miterlimit="10" d="M67.4,111.5c0,0,2.1,2.4,4.6,0"/>
	<path stroke="#000000" stroke-width="1.0008" stroke-miterlimit="10" d="M56.8,96.3c0-0.1,0-0.1-0.2,0c-0.7,0.3-2.2,1.3-2.2,3.5
		c0,3,1.6,3.8,1.6,3.8h1.6c0,0-2.6-1.5-2.4-4C55.6,97,56.8,97,56.8,96.3z"/>
	<path stroke="#000000" stroke-width="1.0008" stroke-miterlimit="10" d="M73,96.3c0-0.1,0-0.1,0.2,0c0.7,0.3,2.2,1.3,2.2,3.5
		c0,3-1.6,3.8-1.6,3.8h-1.6c0,0,2.6-1.5,2.4-4C74.3,97,73.1,97,73,96.3z"/>
	<path fill="#FFFFFF" stroke="#000000" stroke-width="1.0008" stroke-miterlimit="10" d="M69.7,129.5c0,1.7-1.3,2.3-4.7,2.3
		c-3.4,0-4.8-0.7-4.8-2.3H69.7z"/>
</g>
<circle fill="none" stroke="#000000" stroke-width="1.5012" stroke-miterlimit="10" cx="65" cy="114.2" r="45.8"/>
<circle fill="#DF6F65" cx="19.1" cy="20.4" r="7.4"/>
<circle fill="#E5BB45" cx="45.5" cy="20.4" r="7.4"/>
<circle fill="#66C189" cx="71.9" cy="20.4" r="7.4"/>
<circle fill="#214BA0" cx="585.7" cy="291.8" r="7.4"/>
<circle fill="#214BA0" cx="585.7" cy="320.2" r="7.4"/>
<circle fill="#214BA0" cx="585.7" cy="348.7" r="7.4"/>
<circle fill="#DF6F65" cx="585.7" cy="373.9" r="7.4"/>
<path fill="#FFFFFF" d="M795,31.4l-680.6,0c-2,0-3.6-1.6-3.6-3.6V13.2c0-2,1.6-3.6,3.6-3.6H795c2,0,3.6,1.6,3.6,3.6v14.6
	C798.6,29.7,797,31.4,795,31.4z"/>
<g>
	<path d="M783.8,16.6h1.6v3.1h3.1v1.6h-3.1v3.1h-1.6v-3.1h-3.1v-1.6h3.1V16.6z"/>
</g>
<path fill="none" stroke="#000000" stroke-width="1.5012" stroke-miterlimit="10" d="M747.1,101.3v3.6c0,0.3-0.2,0.5-0.5,0.5h-16.6
	c-0.3,0-0.5-0.2-0.5-0.5V83c0-0.3,0.2-0.5,0.5-0.5h16.6c0.3,0,0.5,0.2,0.5,0.5v3.4"/>
<polyline fill="none" stroke="#000000" stroke-width="1.5012" stroke-miterlimit="10" points="733.1,94.7 742.3,94.7 748.9,94.7 
	743.3,100.2 "/>
<polyline fill="none" stroke="#000000" stroke-width="1.5012" stroke-miterlimit="10" points="733.1,92.6 742.3,92.6 748.9,92.6 
	743.3,87.1 "/>
<g>
	<rect x="603.5" y="282.9" fill="none" width="72.9" height="217.8"/>
	<text transform="matrix(1 0 0 1 603.4907 295.8843)"><tspan x="0" y="0" font-family="'FuturaStd-Book'" font-size="15.7351" letter-spacing="2">Jill W.</tspan><tspan x="0" y="27.8" font-family="'FuturaStd-Book'" font-size="15.7351" letter-spacing="2">Joe S.</tspan><tspan x="0" y="55.5" font-family="'FuturaStd-Book'" font-size="15.7351" letter-spacing="2">Amy M.</tspan><tspan x="0" y="83.3" font-family="'FuturaStd-Book'" font-size="15.7351" letter-spacing="2">John F.</tspan></text>
</g>
<g>
	<rect x="563" y="205.9" fill="none" width="89.8" height="17"/>
	<text transform="matrix(1 0 0 1 563.0256 215.1121)" font-family="'FuturaStd-Bold'" font-size="11.1071" letter-spacing="4">members</text>
</g>
<g>
	<path fill="#FFFFFF" stroke="#000000" stroke-miterlimit="10" d="M468.3,314.1H242.7c-7.9,0-14.4-6.5-14.4-14.4v-3.6
		c0-7.9,6.5-14.4,14.4-14.4h225.6c7.9,0,14.4,6.5,14.4,14.4v3.6C482.7,307.6,476.2,314.1,468.3,314.1z"/>
	<path fill="#FFFFFF" stroke="#000000" stroke-miterlimit="10" d="M228.3,299.9v20.1c0,0,3.1-5.9,15.5-5.9"/>
</g>
<rect x="245.6" y="292.4" fill="none" width="227.1" height="15.3"/>
<text transform="matrix(1 0 0 1 245.5916 301.7418)" font-family="'FuturaStd-Book'" font-size="11.2977">Hi Jill! what time is the meeting today?</text>
<circle cx="196.4" cy="297.9" r="15.9"/>
<g>
	<rect x="186.5" y="293" fill="none" width="26.3" height="15.9"/>
	
		<text transform="matrix(1 0 0 1 186.4617 301.6255)" fill="#FFFFFF" font-family="'FuturaStd-Bold'" font-size="10.4251" letter-spacing="1">JW</text>
</g>
<g>
	<path fill="#214BA0" d="M397.5,440.6h97.6c7.9,0,14.4-6.5,14.4-14.4v-3.6c0-7.9-6.5-14.4-14.4-14.4h-97.6
		c-7.9,0-14.4,6.5-14.4,14.4v3.6C383.1,434.2,389.6,440.6,397.5,440.6z"/>
	<path fill="#214BA0" d="M509.5,431.4v15.1c0,0-6.2-5.9-12.4-5.9"/>
</g>
<circle cx="196.4" cy="368" r="15.9"/>
<rect x="186.5" y="363.1" fill="none" width="26.3" height="15.9"/>
<text transform="matrix(1 0 0 1 186.4617 371.7711)" fill="#FFFFFF" font-family="'FuturaStd-Bold'" font-size="10.4251" letter-spacing="1">AM</text>
<circle cx="196.4" cy="467.8" r="15.9"/>
<g>
	<rect x="186.5" y="462.9" fill="none" width="26.3" height="15.9"/>
	
		<text transform="matrix(1 0 0 1 186.4617 471.5279)" fill="#FFFFFF" font-family="'FuturaStd-Bold'" font-size="10.4251" letter-spacing="1">AM</text>
</g>
<rect x="398.8" y="416.8" fill="none" width="227.1" height="15.3"/>
<text transform="matrix(1 0 0 1 398.838 426.107)" fill="#FFFFFF" font-family="'FuturaStd-Book'" font-size="11.2977">It’s at noon now</text>
<g>
	<rect x="158.7" y="205.9" fill="none" width="276.8" height="17"/>
	<text transform="matrix(1 0 0 1 158.6693 215.1111)" font-family="'FuturaStd-Bold'" font-size="11.1071" letter-spacing="4">to: jill, Amy</text>
</g>
<g>
	<path d="M582.4,371.8l1.1-1.1l2.2,2.2l2.2-2.2l1.1,1.1l-2.2,2.2l2.2,2.2l-1.1,1.1l-2.2-2.2l-2.2,2.2l-1.1-1.1l2.2-2.2L582.4,371.8z
		"/>
</g>
<rect x="621.5" y="85.7" fill="#214BA0" width="60.1" height="17.8"/>
<g>
	<rect x="157.6" y="88.9" fill="none" width="841.3" height="87.5"/>
	<text transform="matrix(1 0 0 1 157.641 98.5737)"><tspan x="0" y="0" font-family="'FuturaStd-Medium'" font-size="11.1071" letter-spacing="4">profile</tspan><tspan x="69.7" y="0" font-family="'FuturaStd-Medium'" font-size="11.1071" letter-spacing="27">	</tspan><tspan x="100" y="0" font-family="'FuturaStd-Medium'" font-size="11.1071" letter-spacing="4">members</tspan><tspan x="179.5" y="0" font-family="'FuturaStd-Medium'" font-size="11.1071" letter-spacing="17">	</tspan><tspan x="199.9" y="0" font-family="'FuturaStd-Medium'" font-size="11.1071" letter-spacing="4">events</tspan><tspan x="265" y="0" font-family="'FuturaStd-Medium'" font-size="11.1071" letter-spacing="-1">	</tspan><tspan x="266.6" y="0" font-family="'FuturaStd-Medium'" font-size="11.1071" letter-spacing="4">tags  </tspan><tspan x="327.1" y="0" font-family="'FuturaStd-Medium'" font-size="11.1071" letter-spacing="2">	</tspan><tspan x="333.2" y="0" font-family="'FuturaStd-Medium'" font-size="11.1071" letter-spacing="4">mailinglists</tspan><tspan x="454.4" y="0" fill="#FFFFFF" font-family="'FuturaStd-Medium'" font-size="11.1071" letter-spacing="8">	</tspan><tspan x="466.5" y="0" fill="#FFFFFF" font-family="'FuturaStd-Medium'" font-size="11.1071" letter-spacing="4"> </tspan><tspan x="474.2" y="0" fill="#FFFFFF" font-family="'FuturaStd-Heavy'" font-size="11.1071" letter-spacing="4">chat</tspan><tspan x="518.6" y="0" fill="#FFFFFF" font-family="'FuturaStd-Medium'" font-size="11.1071" letter-spacing="4"> </tspan><tspan x="526.3" y="0" fill="#FFFFFF" font-family="'FuturaStd-Medium'" font-size="11.1071" letter-spacing="3">	</tspan></text>
</g>
<g>
	<path fill="#FFFFFF" stroke="#000000" stroke-miterlimit="10" d="M317.2,383.1h-75.5c-7.9,0-14.4-6.5-14.4-14.4v-3.6
		c0-7.9,6.5-14.4,14.4-14.4h75.5c7.9,0,14.4,6.5,14.4,14.4v3.6C331.6,376.6,325.1,383.1,317.2,383.1z"/>
	<path fill="#FFFFFF" stroke="#000000" stroke-miterlimit="10" d="M227.3,368.9v20.1c0,0,3.1-5.9,15.5-5.9"/>
</g>
<g>
	<path fill="#FFFFFF" stroke="#000000" stroke-miterlimit="10" d="M317.2,482h-75.5c-7.9,0-14.4-6.5-14.4-14.4v-3.6
		c0-7.9,6.5-14.4,14.4-14.4h75.5c7.9,0,14.4,6.5,14.4,14.4v3.6C331.6,475.5,325.1,482,317.2,482z"/>
	<path fill="#FFFFFF" stroke="#000000" stroke-miterlimit="10" d="M227.3,467.8v20.1c0,0,3.1-5.9,15.5-5.9"/>
</g>
<rect x="245.6" y="361.7" fill="none" width="227.1" height="15.3"/>
<text transform="matrix(1 0 0 1 245.5916 370.9986)" font-family="'FuturaStd-Book'" font-size="11.2977">I think 11am.</text>
<rect x="245.6" y="461.4" fill="none" width="227.1" height="15.3"/>
<text transform="matrix(1 0 0 1 245.5916 470.7554)" font-family="'FuturaStd-Book'" font-size="11.2977">Thank you!</text>
</svg>
