<?xml version="1.0" encoding="utf-8"?>
<!-- Generator: Adobe Illustrator 18.1.1, SVG Export Plug-In . SVG Version: 6.00 Build 0)  -->
<!DOCTYPE svg PUBLIC "-//W3C//DTD SVG 1.1//EN" "http://www.w3.org/Graphics/SVG/1.1/DTD/svg11.dtd">
<svg version="1.1" id="Layer_1" xmlns="http://www.w3.org/2000/svg" xmlns:xlink="http://www.w3.org/1999/xlink" x="0px" y="0px"
	 viewBox="0 0 805.8 544.7" enable-background="new 0 0 805.8 544.7" xml:space="preserve">
<rect x="0.7" y="39" fill="#EFEFE7" width="805.8" height="505.4"/>
<rect x="0.7" y="36.5" fill="#FFFFFF" width="805.8" height="44.7"/>
<rect x="0.7" y="79" width="805.8" height="36.2"/>
<rect x="0.7" y="-0.3" fill="#E3E3E8" width="805.8" height="37.8"/>
<path fill="#FFFFFF" d="M111.5,115.9H19.8c0-25.3,20.5-45.8,45.8-45.8S111.5,90.6,111.5,115.9z"/>
<circle fill="#FFFFFF" stroke="#000000" stroke-width="1.5012" stroke-miterlimit="10" cx="65.7" cy="115.9" r="45.8"/>
<path fill="none" stroke="#000000" stroke-width="0.6672" stroke-miterlimit="10" d="M36.7,139.9c-5.9-6.7-9.5-15.6-9.5-25.2
	c0-21.1,17.1-38.2,38.2-38.2s38.2,17.1,38.2,38.2c0,9.2-3.2,17.6-8.6,24.1"/>
<path id="SVGID_x5F_1_x5F__7_" fill="none" d="M104.2,117.2C104.2,96.1,87.1,79,66,79s-38.2,17.1-38.2,38.2s17.1,38.2,38.2,38.2
	S104.2,138.3,104.2,117.2z"/>
<text><textPath  xlink:href="#SVGID_x5F_1_x5F__7_" startOffset="82.361%">
<tspan  font-family="'FuturaStd-Heavy'" font-size="7.4694" letter-spacing="860">NADINE</tspan></textPath>
</text>
<g>
	<path fill="#B0AEA1" stroke="#000000" stroke-width="0.834" stroke-miterlimit="10" d="M73,124.8l4.4-17.8l-0.7-1.6
		c0,0,1.6,4.4,6.8,4.4s5.5-4.5,5.5-4.5H65.8h0H42.7c0,0,0.3,4.5,5.5,4.5s6.8-4.4,6.8-4.4l-1,1.6l4.4,17.8"/>
	<path fill="#FFFFFF" stroke="#000000" stroke-width="1.0008" stroke-miterlimit="10" d="M74,127.8c0,2.5-3.3,3.7-8.4,3.7
		s-8.2-1.3-8.2-3.7c0-4.1,3.2-4.5,8.2-4.5S74,123,74,127.8z"/>
	<line fill="none" stroke="#000000" stroke-width="1.0008" stroke-miterlimit="10" x1="54" y1="107.1" x2="58.3" y2="124.8"/>
	<ellipse cx="61.6" cy="126.6" rx="1" ry="0.7"/>
	<ellipse cx="70" cy="126.6" rx="1" ry="0.7"/>
	<path fill="none" stroke="#000000" stroke-width="1.0008" stroke-miterlimit="10" d="M58.7,113.2c0,0,2.1,2.4,4.6,0"/>
	<path fill="none" stroke="#000000" stroke-width="1.0008" stroke-miterlimit="10" d="M68.1,113.2c0,0,2.1,2.4,4.6,0"/>
	<path stroke="#000000" stroke-width="1.0008" stroke-miterlimit="10" d="M57.6,98c0-0.1,0-0.1-0.2,0c-0.7,0.3-2.2,1.3-2.2,3.5
		c0,3,1.6,3.8,1.6,3.8h1.6c0,0-2.6-1.5-2.4-4C56.3,98.7,57.5,98.7,57.6,98z"/>
	<path stroke="#000000" stroke-width="1.0008" stroke-miterlimit="10" d="M73.8,98c0-0.1,0-0.1,0.2,0c0.7,0.3,2.2,1.3,2.2,3.5
		c0,3-1.6,3.8-1.6,3.8H73c0,0,2.6-1.5,2.4-4C75.1,98.7,73.9,98.7,73.8,98z"/>
	<path fill="#FFFFFF" stroke="#000000" stroke-width="1.0008" stroke-miterlimit="10" d="M70.4,131.2c0,1.7-1.3,2.3-4.7,2.3
		c-3.4,0-4.8-0.7-4.8-2.3H70.4z"/>
</g>
<circle fill="#DF6F65" cx="19.8" cy="20.1" r="7.4"/>
<circle fill="#E5BB45" cx="46.2" cy="20.1" r="7.4"/>
<circle fill="#66C189" cx="72.6" cy="20.1" r="7.4"/>
<path fill="#FFFFFF" d="M795.7,31H115.1c-2,0-3.6-1.6-3.6-3.6V12.9c0-2,1.6-3.6,3.6-3.6h680.6c2,0,3.6,1.6,3.6,3.6v14.6
	C799.3,29.4,797.7,31,795.7,31z"/>
<g>
	<path d="M784.6,16.3h1.6v3.1h3.1v1.6h-3.1V24h-1.6v-3.1h-3.1v-1.6h3.1V16.3z"/>
</g>
<path fill="none" stroke="#000000" stroke-width="1.5012" stroke-miterlimit="10" d="M747.8,67v3.6c0,0.3-0.2,0.5-0.5,0.5h-16.6
	c-0.3,0-0.5-0.2-0.5-0.5V48.7c0-0.3,0.2-0.5,0.5-0.5h16.6c0.3,0,0.5,0.2,0.5,0.5v3.4"/>
<polyline fill="none" stroke="#000000" stroke-width="1.5012" stroke-miterlimit="10" points="733.9,60.4 743,60.4 749.6,60.4 
	744,65.9 "/>
<polyline fill="none" stroke="#000000" stroke-width="1.5012" stroke-miterlimit="10" points="733.9,58.3 743,58.3 749.6,58.3 
	744,52.7 "/>
<g>
	<rect x="158.4" y="94.2" fill="none" width="841.3" height="19"/>
	<text transform="matrix(1 0 0 1 158.3639 102.8622)"><tspan x="0" y="0" fill="#FFFFFF" font-family="'FuturaStd-Medium'" font-size="10" letter-spacing="4">to do  members list  activity  billing  </tspan><tspan x="349.2" y="0" fill="#214BA0" font-family="'FuturaStd-Heavy'" font-size="10" letter-spacing="4">stats</tspan><tspan x="395.5" y="0" fill="#FFFFFF" font-family="'FuturaStd-Medium'" font-size="10" letter-spacing="4">  logs  lists</tspan></text>
</g>
<g>
	<rect x="158.4" y="132.2" fill="none" width="841.3" height="27.2"/>
	<text transform="matrix(1 0 0 1 158.3636 139.1059)"><tspan x="0" y="0" font-family="'FuturaStd-Medium'" font-size="8" letter-spacing="2">daily logs | neghborhoods | monthly members | membership history | </tspan><tspan x="491.1" y="0" fill="#214BA0" font-family="'FuturaStd-Bold'" font-size="8" letter-spacing="2">gender balance</tspan><tspan x="606.8" y="0" font-family="'FuturaStd-Medium'" font-size="8" letter-spacing="2"> |  </tspan><tspan x="0" y="13.6" font-family="'FuturaStd-Medium'" font-size="8" letter-spacing="2">membership days |  history graphs  |  income graph  |  member graph </tspan></text>
</g>
<g>
	<rect x="158.4" y="56.5" fill="none" width="841.3" height="87.5"/>
	<text transform="matrix(1 0 0 1 158.3639 64.9817)"><tspan x="0" y="0" fill="#214BA0" font-family="'FuturaStd-Heavy'" font-size="10" letter-spacing="4">staff view </tspan><tspan x="99.1" y="0" font-family="'FuturaStd-Heavy'" font-size="10" letter-spacing="4">/ member view</tspan></text>
</g>
<g>
	<rect x="157.3" y="185.4" fill="none" width="523.3" height="17"/>
	<text transform="matrix(1 0 0 1 157.2521 194.586)" font-family="'FuturaStd-Bold'" font-size="11.1071" letter-spacing="4">gender Balance — all members</text>
</g>
<g>
	<rect x="157.3" y="209.9" fill="none" width="539.2" height="14.3"/>
	<text transform="matrix(1 0 0 1 157.2523 217.3331)" font-family="'FuturaStd-Book'" font-size="9" letter-spacing="3">male: 702 (42%)   Female:406 (24%)   unknown: 2(0%)   total:1687</text>
</g>
<g>
	<path d="M267.1,472.4c24.3,36.4,65.7,60.4,112.8,60.4c24.7,0,47.8-6.6,67.7-18.1l-67.7-114.6L267.1,472.4z"/>
	<path fill="#B0AEA1" d="M379.9,262C379.9,262,379.9,262,379.9,262c-74.8,0-135.4,60.6-135.4,135.4c0,27.7,8.3,53.5,22.7,75
		l112.8-72.3V262z"/>
	<path fill="#214BA0" d="M515.4,397.4c0-74.8-60.6-135.4-135.4-135.4v138.1l67.7,114.6C488.1,491.3,515.4,447.5,515.4,397.4z"/>
</g>
<rect x="541.3" y="391.8" fill="none" width="97.9" height="16.6"/>
<text transform="matrix(1 0 0 1 541.317 399.2495)" fill="#214BA0" font-family="'FuturaStd-Bold'" font-size="9" letter-spacing="2">males</text>
<rect x="197.8" y="498.1" fill="none" width="97.9" height="16.6"/>
<text transform="matrix(1 0 0 1 197.8329 505.5797)" font-family="'FuturaStd-Bold'" font-size="9" letter-spacing="2">females</text>
<rect x="154.1" y="383.5" fill="none" width="97.9" height="16.6"/>
<text transform="matrix(1 0 0 1 154.0589 390.9517)" fill="#B0AEA1" font-family="'FuturaStd-Bold'" font-size="9" letter-spacing="2">unknown</text>
</svg>
