<?xml version="1.0" encoding="utf-8"?>
<!-- Generator: Adobe Illustrator 18.1.1, SVG Export Plug-In . SVG Version: 6.00 Build 0)  -->
<!DOCTYPE svg PUBLIC "-//W3C//DTD SVG 1.1//EN" "http://www.w3.org/Graphics/SVG/1.1/DTD/svg11.dtd">
<svg version="1.1" id="Layer_1" xmlns="http://www.w3.org/2000/svg" xmlns:xlink="http://www.w3.org/1999/xlink" x="0px" y="0px"
	 viewBox="0 0 805.8 544.7" enable-background="new 0 0 805.8 544.7" xml:space="preserve">
<rect x="0" y="39.3" fill="#EFEFE7" width="805.8" height="505.4"/>
<path fill="#FFFFFF" stroke="#000000" stroke-width="2" stroke-miterlimit="10" d="M296.1,436.9H161.3c-2,0-3.6-1.6-3.6-3.6V309.6
	c0-2,1.6-3.6,3.6-3.6h134.8c2,0,3.6,1.6,3.6,3.6v123.7C299.7,435.3,298.1,436.9,296.1,436.9z"/>
<rect x="0" y="37.8" fill="#FFFFFF" width="805.8" height="79.9"/>
<rect x="0" y="0" fill="#E3E3E8" width="805.8" height="37.8"/>
<path fill="none" stroke="#000000" stroke-width="0.6672" stroke-miterlimit="10" d="M35.9,138.2c-5.9-6.7-9.5-15.6-9.5-25.2
	c0-21.1,17.1-38.2,38.2-38.2s38.2,17.1,38.2,38.2c0,9.2-3.2,17.6-8.6,24.1"/>
<path id="SVGID_x5F_1_x5F__2_" fill="none" d="M103.5,115.5c0-21.1-17.1-38.2-38.2-38.2s-38.2,17.1-38.2,38.2s17.1,38.2,38.2,38.2
	S103.5,136.6,103.5,115.5z"/>
<text><textPath  xlink:href="#SVGID_x5F_1_x5F__2_" startOffset="82.361%">
<tspan  font-family="'FuturaStd-Heavy'" font-size="7.4694" letter-spacing="860">NADINE</tspan></textPath>
</text>
<g>
	<path fill="#B0AEA1" stroke="#000000" stroke-width="0.834" stroke-miterlimit="10" d="M72.3,123.1l4.4-17.8l-0.7-1.6
		c0,0,1.6,4.4,6.8,4.4s5.5-4.5,5.5-4.5H65.1h0H41.9c0,0,0.3,4.5,5.5,4.5s6.8-4.4,6.8-4.4l-1,1.6l4.4,17.8"/>
	<path fill="#FFFFFF" stroke="#000000" stroke-width="1.0008" stroke-miterlimit="10" d="M73.3,126.1c0,2.5-3.3,3.7-8.4,3.7
		s-8.2-1.3-8.2-3.7c0-4.1,3.2-4.5,8.2-4.5S73.3,121.3,73.3,126.1z"/>
	<line fill="none" stroke="#000000" stroke-width="1.0008" stroke-miterlimit="10" x1="53.3" y1="105.4" x2="57.6" y2="123.1"/>
	<ellipse cx="60.8" cy="124.9" rx="1" ry="0.7"/>
	<ellipse cx="69.3" cy="124.9" rx="1" ry="0.7"/>
	<path fill="none" stroke="#000000" stroke-width="1.0008" stroke-miterlimit="10" d="M58,111.5c0,0,2.1,2.4,4.6,0"/>
	<path fill="none" stroke="#000000" stroke-width="1.0008" stroke-miterlimit="10" d="M67.4,111.5c0,0,2.1,2.4,4.6,0"/>
	<path stroke="#000000" stroke-width="1.0008" stroke-miterlimit="10" d="M56.8,96.3c0-0.1,0-0.1-0.2,0c-0.7,0.3-2.2,1.3-2.2,3.5
		c0,3,1.6,3.8,1.6,3.8h1.6c0,0-2.6-1.5-2.4-4C55.6,97,56.8,97,56.8,96.3z"/>
	<path stroke="#000000" stroke-width="1.0008" stroke-miterlimit="10" d="M73,96.3c0-0.1,0-0.1,0.2,0c0.7,0.3,2.2,1.3,2.2,3.5
		c0,3-1.6,3.8-1.6,3.8h-1.6c0,0,2.6-1.5,2.4-4C74.3,97,73.1,97,73,96.3z"/>
	<path fill="#FFFFFF" stroke="#000000" stroke-width="1.0008" stroke-miterlimit="10" d="M69.7,129.5c0,1.7-1.3,2.3-4.7,2.3
		c-3.4,0-4.8-0.7-4.8-2.3H69.7z"/>
</g>
<circle fill="none" stroke="#000000" stroke-width="1.5012" stroke-miterlimit="10" cx="65" cy="114.2" r="45.8"/>
<circle fill="#DF6F65" cx="19.1" cy="20.4" r="7.4"/>
<circle fill="#E5BB45" cx="45.5" cy="20.4" r="7.4"/>
<circle fill="#66C189" cx="71.9" cy="20.4" r="7.4"/>
<path fill="#FFFFFF" d="M795,31.4H114.4c-2,0-3.6-1.6-3.6-3.6V13.2c0-2,1.6-3.6,3.6-3.6H795c2,0,3.6,1.6,3.6,3.6v14.6
	C798.6,29.7,797,31.4,795,31.4z"/>
<g>
	<path d="M783.8,16.6h1.6v3.1h3.1v1.6h-3.1v3.1h-1.6v-3.1h-3.1v-1.6h3.1V16.6z"/>
</g>
<path fill="none" stroke="#000000" stroke-width="1.5012" stroke-miterlimit="10" d="M747.1,101.3v3.6c0,0.3-0.2,0.5-0.5,0.5h-16.6
	c-0.3,0-0.5-0.2-0.5-0.5V83c0-0.3,0.2-0.5,0.5-0.5h16.6c0.3,0,0.5,0.2,0.5,0.5v3.4"/>
<polyline fill="none" stroke="#000000" stroke-width="1.5012" stroke-miterlimit="10" points="733.1,94.7 742.3,94.7 748.9,94.7 
	743.3,100.2 "/>
<polyline fill="none" stroke="#000000" stroke-width="1.5012" stroke-miterlimit="10" points="733.1,92.6 742.3,92.6 748.9,92.6 
	743.3,87.1 "/>
<g>
	<rect x="157.7" y="232.5" fill="none" width="276.8" height="17"/>
	<text transform="matrix(1 0 0 1 157.6685 241.7366)" font-family="'FuturaStd-Bold'" font-size="11.1071" letter-spacing="4">view Members</text>
</g>
<g>
	<rect x="156.8" y="458.2" fill="none" width="187.9" height="14.2"/>
	<text transform="matrix(1 0 0 1 156.7556 467.8241)" font-family="'FuturaStd-Medium'" font-size="11.1071" letter-spacing="4">Adam’s Hudson</text>
</g>
<g>
	<path fill="#FFFFFF" stroke="#000000" stroke-width="2" stroke-miterlimit="10" d="M258.6,359.1c0,17.2-11.8,31.2-29,31.2
		s-29-14-29-31.2s11.8-29,29-29S258.6,341.9,258.6,359.1z"/>
	<path fill="none" stroke="#000000" stroke-width="2" stroke-miterlimit="10" d="M215.1,370.1c0,0,2.4,8.8,13.6,8.8
		c11.3,0,13.6-8.8,13.6-8.8"/>
	<path fill="none" stroke="#000000" stroke-width="2" stroke-miterlimit="10" d="M237.7,357.5c0,0,5.5,5.5,9.9,0"/>
	<path fill="none" stroke="#000000" stroke-width="2" stroke-miterlimit="10" d="M212.8,357.5c0,0,5.5,5.5,9.9,0"/>
	<path stroke="#000000" stroke-width="2" stroke-miterlimit="10" d="M214.8,332.1c0,0-7.5,25.7,46.5,20.8c0,0-5.6-22.2-24.3-24.8
		C222.7,326.1,214.8,332.1,214.8,332.1z"/>
	<path stroke="#000000" stroke-width="2" stroke-miterlimit="10" d="M217.5,330.7c0,0-6,17.7-19.8,27c0,0-0.6-10.7,3.4-15.9
		C206.9,334.4,217.5,330.7,217.5,330.7z"/>
	<path fill="#B0AEA1" stroke="#000000" stroke-width="2" stroke-miterlimit="10" d="M208.7,407l-0.1,29.3h42c0,0,0.1-13.3,0.5-28.3
		l-0.1-1.3c-0.1,8.5-0.6,21.7-0.6,21.7l0.2,7.9h9.2l-4.7-42.3l-16.6-0.9c-2.4-0.9-5.3-1.4-8.6-1.4h-0.9c-3.3,0-6.1,0.5-8.6,1.4
		l-17.2,0.9l-3.9,42.3h9.1v-8.5c0,0,0-12.7,0.2-21.5"/>
	<path stroke="#000000" stroke-width="2" stroke-miterlimit="10" d="M220.1,392.8c0,0,4.8,4.6,9.6,4.6s8.7-4.6,8.7-4.6
		S231.4,387.6,220.1,392.8z"/>
	<polygon stroke="#000000" stroke-width="2" stroke-miterlimit="10" points="235.3,404.6 246.8,404.6 246.8,417.1 241.6,417 
		235.3,417.1 	"/>
</g>
<path fill="#FFFFFF" stroke="#000000" stroke-width="2" stroke-miterlimit="10" d="M488.9,436.9H354.1c-2,0-3.6-1.6-3.6-3.6V309.6
	c0-2,1.6-3.6,3.6-3.6h134.8c2,0,3.6,1.6,3.6,3.6v123.7C492.5,435.3,490.9,436.9,488.9,436.9z"/>
<g>
	<rect x="352.6" y="458.2" fill="none" width="187.9" height="14.2"/>
	<text transform="matrix(1 0 0 1 352.5513 467.8241)" font-family="'FuturaStd-Medium'" font-size="11.1071" letter-spacing="5">Leslie harris</text>
</g>
<path fill="#FFFFFF" stroke="#000000" stroke-width="2" stroke-miterlimit="10" d="M681.7,436.9H546.9c-2,0-3.6-1.6-3.6-3.6V309.6
	c0-2,1.6-3.6,3.6-3.6h134.8c2,0,3.6,1.6,3.6,3.6v123.7C685.3,435.3,683.6,436.9,681.7,436.9z"/>
<g>
	<rect x="542.3" y="458.2" fill="none" width="187.9" height="14.2"/>
	<text transform="matrix(1 0 0 1 542.3422 467.8241)" font-family="'FuturaStd-Medium'" font-size="11.1071" letter-spacing="5">marrisa Smith</text>
</g>
<path fill="#FFFFFF" stroke="#000000" stroke-width="2" stroke-miterlimit="10" d="M401.4,397c-0.6,3.6-14.5,39.3-14.5,39.3
	l12.5,0.6l13.1-38L401.4,397z"/>
<path fill="#FFFFFF" stroke="#000000" stroke-width="2" stroke-miterlimit="10" d="M434.6,407.8c0.7,3.6,11.5,29.1,11.5,29.1h15
	l-18.4-47.4L434.6,407.8z"/>
<path stroke="#000000" stroke-width="2" stroke-miterlimit="10" d="M392,358.8c0,0-8.1,30.8,0,39.4s50.9,9.4,58.3,4.1
	c4.1-2.9,7-1.6,1.1-43.5H392z"/>
<path fill="#FFFFFF" stroke="#000000" stroke-width="2" stroke-miterlimit="10" d="M451.4,358.8c0,17-11.6,30.8-28.6,30.8
	s-28.6-13.8-28.6-30.8c0-17,11.6-28.6,28.6-28.6S451.4,341.8,451.4,358.8z"/>
<path stroke="#000000" stroke-width="2" stroke-miterlimit="10" d="M435.4,332.1c0,0-13.2,28-43.4,28c0,0-0.2-15.6,12.3-24.6
	C419.5,324.5,435.4,332.1,435.4,332.1z"/>
<path stroke="#000000" stroke-width="2" stroke-miterlimit="10" d="M408.6,370.6h26.9c0,0-2.3,10.8-13.4,10.8
	S408.6,370.6,408.6,370.6z"/>
<path fill="#B0AEA1" stroke="#000000" stroke-width="2" stroke-miterlimit="10" d="M422.3,389.8c20.4,0,33.9,46.8,33.9,46.8H392
	C392,436.6,403.5,389.8,422.3,389.8z"/>
<path stroke="#000000" stroke-width="2" stroke-miterlimit="10" d="M412.6,392.5l-3.1,11.3l12.8-9.4l12.6,9.4l-3.4-12.1
	c0,0-7.2-2.4-9.6-2.4C419.5,389.3,412.6,392.5,412.6,392.5z"/>
<path fill="#EFEFE7" stroke="#000000" stroke-width="2" stroke-miterlimit="10" d="M430.8,355.3c0,0,5.4,5.4,9.7,0"/>
<path fill="none" stroke="#000000" stroke-width="2" stroke-miterlimit="10" d="M406.3,355.3c0,0,5.4,5.4,9.7,0"/>
<ellipse stroke="#000000" stroke-width="2" stroke-miterlimit="10" cx="629.1" cy="328.2" rx="14.4" ry="13.1"/>
<path fill="#FFFFFF" stroke="#000000" stroke-width="2" stroke-miterlimit="10" d="M625.3,400.4c0,3.6,11.4,36,11.4,36l11.1,0.1
	l-17.2-42c-1.7-1.3-7.8-4.4-8.8-2.5C620.7,394.1,625.3,400.4,625.3,400.4z"/>
<path fill="#FFFFFF" stroke="#000000" stroke-width="2" stroke-miterlimit="10" d="M597.2,400.4c0,3.6-11.4,36-11.4,36l-11.1,0.1
	l17.2-42c1.7-1.3,7.8-4.4,8.8-2.5C601.8,394.1,597.2,400.4,597.2,400.4z"/>
<path fill="#FFFFFF" stroke="#000000" stroke-width="2" stroke-miterlimit="10" d="M639.2,357.6c0,16.6-11.4,30.1-28,30.1
	c-16.6,0-28-13.5-28-30.1s11.4-28,28-28C627.8,329.6,639.2,341,639.2,357.6z"/>
<path stroke="#000000" stroke-width="2" stroke-miterlimit="10" d="M623.6,331.5c0,0,4,37.7-46.2,30.6c0,0,1.6-19.6,13.9-28.5
	C606.1,322.9,623.6,331.5,623.6,331.5z"/>
<path stroke="#000000" stroke-width="2" stroke-miterlimit="10" d="M600.3,331.5c0,0,28.8-3.3,42.5,27.4c0,0,0.2-15.2-12.1-24.1
	C615.9,324.1,600.3,331.5,600.3,331.5z"/>
<path fill="#B0AEA1" stroke="#000000" stroke-width="2" stroke-miterlimit="10" d="M610.8,387.9c28.9,0,18,45.2,18,45.2h-32.6
	C596.3,433.1,581.8,387.9,610.8,387.9z"/>
<path fill="#EFEFE7" stroke="#000000" stroke-width="2" stroke-miterlimit="10" d="M619.1,354.2c0,0,5.3,5.3,9.5,0"/>
<path fill="none" stroke="#000000" stroke-width="2" stroke-miterlimit="10" d="M595.1,354.2c0,0,5.3,5.3,9.5,0"/>
<path stroke="#000000" stroke-width="2" stroke-miterlimit="10" d="M595,424.8h34.2c0,0,1.8,8,2,11l-38.3,0.4
	C593.6,432.9,595,424.8,595,424.8z"/>
<path stroke="#000000" stroke-width="2" stroke-miterlimit="10" d="M600.9,390.4c0,0,4.8,4.5,9.5,4.5c4.8,0,8.7-4.5,8.7-4.5
	S612.1,385.2,600.9,390.4z"/>
<path fill="none" stroke="#000000" stroke-width="2" stroke-miterlimit="10" d="M602,376c0,0,3.2,3.7,9.2,2.8
	c11-1.7,13.5-8.7,13.5-8.7"/>
<path fill="none" stroke="#000000" stroke-width="2" stroke-miterlimit="10" d="M618.9,534.6c0,0,11.9,5.4,13.8-4.8"/>
<path fill="none" stroke="#000000" stroke-width="2" stroke-miterlimit="10" d="M618.6,534.3c3.2,1.1,11.3,1.8,10.8-6.5"/>
<path fill="none" stroke="#000000" stroke-width="2" stroke-miterlimit="10" d="M618.9,534.6c0,0,10.1,0,6.2-9.5"/>
<rect x="251.1" y="85.8" fill="#214BA0" width="86.9" height="17.8"/>
<g>
	<rect x="157.6" y="88.9" fill="none" width="841.3" height="49.3"/>
	<text transform="matrix(1 0 0 1 157.641 98.5736)"><tspan x="0" y="0" font-family="'FuturaStd-Medium'" font-size="11.1071" letter-spacing="4">profile</tspan><tspan x="69.7" y="0" font-family="'FuturaStd-Medium'" font-size="11.1071" letter-spacing="27">	</tspan><tspan x="100" y="0" fill="#FFFFFF" font-family="'FuturaStd-Heavy'" font-size="11.1071" letter-spacing="4">members</tspan><tspan x="178.7" y="0" font-family="'FuturaStd-Medium'" font-size="11.1071" letter-spacing="18">	</tspan><tspan x="199.9" y="0" font-family="'FuturaStd-Medium'" font-size="11.1071" letter-spacing="4">events </tspan><tspan x="272.7" y="0" font-family="'FuturaStd-Medium'" font-size="11.1071" letter-spacing="24">	</tspan><tspan x="299.9" y="0" font-family="'FuturaStd-Medium'" font-size="11.1071" letter-spacing="4">tags  </tspan><tspan x="360.5" y="0" font-family="'FuturaStd-Medium'" font-size="11.1071" letter-spacing="2">	</tspan><tspan x="366.5" y="0" font-family="'FuturaStd-Medium'" font-size="11.1071" letter-spacing="4">mailinglis</tspan><tspan x="467.9" y="0" font-family="'FuturaStd-Medium'" font-size="11.1071" letter-spacing="4">ts</tspan><tspan x="487.8" y="0" font-family="'FuturaStd-Medium'" font-size="11.1071" letter-spacing="8">	</tspan><tspan x="499.8" y="0" font-family="'FuturaStd-Medium'" font-size="11.1071" letter-spacing="4"> chat </tspan><tspan x="560.6" y="0" font-family="'FuturaStd-Medium'" font-size="11.1071" letter-spacing="2">	</tspan></text>
</g>
<g>
	<path fill="#FFFFFF" stroke="#000000" stroke-width="2" stroke-miterlimit="10" d="M202.9,540.8c-4.7-2.1-8-6.6-8-11.7
		c0-7.2,6.5-13.1,14.4-13.1c8,0,14.4,5.8,14.4,13.1c0,0.1,0,0.2,0,0.3c3.4-0.7,7.8-1.1,13.1-0.4c9.6,1.3,15.7,7.8,19.4,13.7h43.4
		v-32.3c0-2-1.6-3.6-3.6-3.6H161.3c-2,0-3.6,1.6-3.6,3.6v32.3h43.5C201.7,542.1,202.3,541.5,202.9,540.8z"/>
	<path fill="#FFFFFF" stroke="#000000" stroke-width="2" stroke-miterlimit="10" d="M212.7,541.9c-0.2,0.3-0.4,0.6-0.6,0.9h3.9
		c-0.3-0.6-0.6-1.2-0.8-1.7C214.5,541.4,213.6,541.7,212.7,541.9z"/>
	<path stroke="#000000" stroke-width="2" stroke-miterlimit="10" d="M236.9,529.1c-5.2-0.7-9.6-0.4-13.1,0.4c0,0.7-0.1,1.5-0.2,2.2
		c1.9-0.3,3.9-0.5,6-0.5c10.5,0,19,4.4,24,11.7h2.7C252.6,536.8,246.4,530.4,236.9,529.1z"/>
	<path stroke="#000000" stroke-width="2" stroke-miterlimit="10" d="M215.3,541.1c0.2,0.6,0.5,1.1,0.8,1.7h37.5
		c-5-7.3-13.5-11.7-24-11.7c-2.1,0-4.1,0.2-6,0.5C222.7,535.9,219.5,539.4,215.3,541.1z"/>
	<path stroke="#000000" stroke-width="2" stroke-miterlimit="10" d="M206.2,541.9c-1.1-0.2-2.2-0.6-3.3-1.1c-0.6,0.6-1.2,1.3-1.7,2
		h4.3C205.8,542.5,206,542.2,206.2,541.9z"/>
	<path stroke="#000000" stroke-width="2" stroke-miterlimit="10" d="M209.4,542.2c-1.1,0-2.2-0.1-3.2-0.3c-0.2,0.3-0.4,0.6-0.7,0.9
		h6.6c0.2-0.3,0.4-0.6,0.6-0.9C211.7,542.1,210.5,542.2,209.4,542.2z"/>
	<path fill="#FFFFFF" stroke="#000000" stroke-width="2" stroke-miterlimit="10" d="M422.8,531.1c10.4,0,18.8,4.4,23.8,11.7h45.9
		v-32.3c0-2-1.6-3.6-3.6-3.6H354.1c-2,0-3.6,1.6-3.6,3.6v32.3H399C404,535.5,412.4,531.1,422.8,531.1z"/>
	<path fill="#FFFFFF" stroke="#000000" stroke-width="2" stroke-miterlimit="10" d="M591.2,534.6c14.9-10.7,32.4-2.1,32.4-2.1
		s0,0.2,0,0.5c4.8,2.1,8.7,5.4,11.3,9.8h50.3v-32.3c0-2-1.6-3.6-3.6-3.6H546.9c-2,0-3.6,1.6-3.6,3.6v32.3h40.6
		C585.8,539.7,588.2,536.9,591.2,534.6z"/>
	<path fill="#FFFFFF" stroke="#000000" stroke-width="2" stroke-miterlimit="10" d="M422.8,531.1c-10.4,0-18.8,4.4-23.8,11.7h47.5
		C441.6,535.5,433.2,531.1,422.8,531.1z"/>
	<path stroke="#000000" stroke-width="2" stroke-miterlimit="10" d="M216,532.3c1.4-0.8,4-2,7.8-2.8c0-0.1,0-0.2,0-0.3
		c0-7.2-6.5-13.1-14.4-13.1c-8,0-14.4,5.8-14.4,13.1c0,5.1,3.2,9.5,8,11.7C207.4,536.3,213.3,533.5,216,532.3z"/>
	<path stroke="#000000" stroke-width="2" stroke-miterlimit="10" d="M215.3,541.1c-0.3-0.9-0.6-1.8-0.7-2.7
		c-0.5,1.1-1.2,2.2-1.9,3.4C213.6,541.7,214.5,541.4,215.3,541.1z"/>
	<path stroke="#000000" stroke-width="2" stroke-miterlimit="10" d="M217.5,531.7c0,0-0.2,0.7-0.7,1.9c2.1-0.9,4.4-1.6,6.8-2
		c0.1-0.7,0.2-1.4,0.2-2.2c-3.7,0.8-6.3,2-7.8,2.8C217,531.9,217.5,531.7,217.5,531.7z"/>
	<path stroke="#000000" stroke-width="2" stroke-miterlimit="10" d="M214.6,538.4c0.1,0.8,0.4,1.7,0.7,2.7c4.2-1.7,7.4-5.2,8.3-9.5
		c-2.4,0.4-4.7,1.1-6.8,2C216.3,534.8,215.6,536.5,214.6,538.4z"/>
	<path stroke="#000000" stroke-width="2" stroke-miterlimit="10" d="M214.5,534.8c0.1-1,0.3-1.7,0.3-1.7s0.4-0.3,1.3-0.8
		c-2.7,1.2-8.7,4-13.1,8.5c1,0.5,2.1,0.8,3.3,1.1C208.4,539,211.2,536.6,214.5,534.8z"/>
	<path stroke="#000000" stroke-width="2" stroke-miterlimit="10" d="M212.7,541.9c0.7-1.2,1.3-2.4,1.9-3.4c-0.2-1.5-0.2-2.7-0.1-3.7
		c-3.3,1.8-6.1,4.2-8.3,7.1c1,0.2,2.1,0.3,3.2,0.3C210.5,542.2,211.7,542.1,212.7,541.9z"/>
	<path stroke="#000000" stroke-width="2" stroke-miterlimit="10" d="M217.5,531.7c0,0-0.6,0.2-1.5,0.6c-0.8,0.5-1.3,0.8-1.3,0.8
		s-0.2,0.6-0.3,1.7c0.8-0.4,1.5-0.8,2.3-1.1C217.3,532.4,217.5,531.7,217.5,531.7z"/>
	<path stroke="#000000" stroke-width="2" stroke-miterlimit="10" d="M214.6,538.4c1-2,1.7-3.6,2.2-4.8c-0.8,0.3-1.6,0.7-2.3,1.1
		C214.4,535.7,214.3,537,214.6,538.4z"/>
	<path fill="#FFFFFF" stroke="#000000" stroke-width="2" stroke-miterlimit="10" d="M623.6,533.1c0.1,1.4,0.1,5.2-1.1,9.8H635
		C632.3,538.5,628.4,535.1,623.6,533.1z"/>
	<path stroke="#000000" stroke-width="2" stroke-miterlimit="10" d="M611.2,530.6c4.6,0,8.8,0.9,12.4,2.5c0-0.3,0-0.5,0-0.5
		s-17.5-8.6-32.4,2.1c-3.1,2.2-5.5,5.1-7.3,8.2h3.6C592.2,535.2,600.6,530.6,611.2,530.6z"/>
	<path stroke="#000000" stroke-width="2" stroke-miterlimit="10" d="M587.5,542.8h35.1c1.2-4.5,1.1-8.4,1.1-9.8
		c-3.7-1.6-7.8-2.5-12.4-2.5C600.6,530.6,592.2,535.2,587.5,542.8z"/>
</g>
</svg>
