<?xml version="1.0" encoding="utf-8"?>
<!-- Generator: Adobe Illustrator 18.1.1, SVG Export Plug-In . SVG Version: 6.00 Build 0)  -->
<!DOCTYPE svg PUBLIC "-//W3C//DTD SVG 1.1//EN" "http://www.w3.org/Graphics/SVG/1.1/DTD/svg11.dtd">
<svg version="1.1" id="Layer_1" xmlns="http://www.w3.org/2000/svg" xmlns:xlink="http://www.w3.org/1999/xlink" x="0px" y="0px"
	 viewBox="0 0 805.8 544.7" enable-background="new 0 0 805.8 544.7" xml:space="preserve">
<rect x="0" y="39.2" fill="#EFEFE7" width="805.8" height="505.4"/>
<path fill="#FFFFFF" stroke="#000000" stroke-width="2" stroke-miterlimit="10" d="M337.5,375H161.3c-2,0-3.6-1.6-3.6-3.6V209.5
	c0-2,1.6-3.6,3.6-3.6h176.2c2,0,3.6,1.6,3.6,3.6v161.9C341.1,373.3,339.5,375,337.5,375z"/>
<rect x="0" y="37.8" fill="#FFFFFF" width="805.8" height="79.9"/>
<rect x="0" y="0" fill="#E3E3E8" width="805.8" height="37.8"/>
<path fill="none" stroke="#000000" stroke-width="0.6672" stroke-miterlimit="10" d="M35.9,138.2c-5.9-6.7-9.5-15.6-9.5-25.2
	c0-21.1,17.1-38.2,38.2-38.2s38.2,17.1,38.2,38.2c0,9.2-3.2,17.6-8.6,24.1"/>
<path id="SVGID_x5F_1_x5F__1_" fill="none" d="M103.5,115.5c0-21.1-17.1-38.2-38.2-38.2s-38.2,17.1-38.2,38.2s17.1,38.2,38.2,38.2
	S103.5,136.6,103.5,115.5z"/>
<text><textPath  xlink:href="#SVGID_x5F_1_x5F__1_" startOffset="82.361%">
<tspan  font-family="'FuturaStd-Heavy'" font-size="7.4694" letter-spacing="860">NADINE</tspan></textPath>
</text>
<g>
	<path fill="#B0AEA1" stroke="#000000" stroke-width="0.834" stroke-miterlimit="10" d="M72.3,123.1l4.4-17.8l-0.7-1.6
		c0,0,1.6,4.4,6.8,4.4s5.5-4.5,5.5-4.5H65.1h0H41.9c0,0,0.3,4.5,5.5,4.5s6.8-4.4,6.8-4.4l-1,1.6l4.4,17.8"/>
	<path fill="#FFFFFF" stroke="#000000" stroke-width="1.0008" stroke-miterlimit="10" d="M73.3,126.1c0,2.5-3.3,3.7-8.4,3.7
		s-8.2-1.3-8.2-3.7c0-4.1,3.2-4.5,8.2-4.5S73.3,121.3,73.3,126.1z"/>
	<line fill="none" stroke="#000000" stroke-width="1.0008" stroke-miterlimit="10" x1="53.3" y1="105.3" x2="57.6" y2="123.1"/>
	<ellipse cx="60.8" cy="124.9" rx="1" ry="0.7"/>
	<ellipse cx="69.3" cy="124.9" rx="1" ry="0.7"/>
	<path fill="none" stroke="#000000" stroke-width="1.0008" stroke-miterlimit="10" d="M58,111.5c0,0,2.1,2.4,4.6,0"/>
	<path fill="none" stroke="#000000" stroke-width="1.0008" stroke-miterlimit="10" d="M67.4,111.5c0,0,2.1,2.4,4.6,0"/>
	<path stroke="#000000" stroke-width="1.0008" stroke-miterlimit="10" d="M56.8,96.2c0-0.1,0-0.1-0.2,0c-0.7,0.3-2.2,1.3-2.2,3.5
		c0,3,1.6,3.8,1.6,3.8h1.6c0,0-2.6-1.5-2.4-4S56.8,96.9,56.8,96.2z"/>
	<path stroke="#000000" stroke-width="1.0008" stroke-miterlimit="10" d="M73,96.2c0-0.1,0-0.1,0.2,0c0.7,0.3,2.2,1.3,2.2,3.5
		c0,3-1.6,3.8-1.6,3.8h-1.6c0,0,2.6-1.5,2.4-4C74.3,97,73.1,96.9,73,96.2z"/>
	<path fill="#FFFFFF" stroke="#000000" stroke-width="1.0008" stroke-miterlimit="10" d="M69.7,129.5c0,1.7-1.3,2.3-4.7,2.3
		c-3.4,0-4.8-0.7-4.8-2.3H69.7z"/>
</g>
<circle fill="none" stroke="#000000" stroke-width="1.5012" stroke-miterlimit="10" cx="65" cy="114.2" r="45.8"/>
<circle fill="#DF6F65" cx="19.1" cy="20.4" r="7.4"/>
<circle fill="#E5BB45" cx="45.5" cy="20.4" r="7.4"/>
<circle fill="#66C189" cx="71.9" cy="20.4" r="7.4"/>
<path fill="#FFFFFF" d="M795,31.3H114.4c-2,0-3.6-1.6-3.6-3.6V13.1c0-2,1.6-3.6,3.6-3.6H795c2,0,3.6,1.6,3.6,3.6v14.6
	C798.6,29.7,797,31.3,795,31.3z"/>
<g>
	<path d="M783.8,16.6h1.6v3.1h3.1v1.6h-3.1v3.1h-1.6v-3.1h-3.1v-1.6h3.1V16.6z"/>
</g>
<path fill="none" stroke="#000000" stroke-width="1.5012" stroke-miterlimit="10" d="M747.1,101.3v3.6c0,0.3-0.2,0.5-0.5,0.5h-16.6
	c-0.3,0-0.5-0.2-0.5-0.5V83c0-0.3,0.2-0.5,0.5-0.5h16.6c0.3,0,0.5,0.2,0.5,0.5v3.4"/>
<polyline fill="none" stroke="#000000" stroke-width="1.5012" stroke-miterlimit="10" points="733.1,94.7 742.3,94.7 748.9,94.7 
	743.3,100.2 "/>
<polyline fill="none" stroke="#000000" stroke-width="1.5012" stroke-miterlimit="10" points="733.1,92.6 742.3,92.6 748.9,92.6 
	743.3,87 "/>
<g>
	<rect x="375.4" y="205.9" fill="none" width="276.8" height="17"/>
	<text transform="matrix(1 0 0 1 375.4445 215.0787)" font-family="'FuturaStd-Bold'" font-size="11.1071" letter-spacing="4">connect with Adam</text>
</g>
<g>
	<rect x="157.7" y="405.8" fill="none" width="187.9" height="128.8"/>
	<text transform="matrix(1 0 0 1 157.668 415.0592)"><tspan x="0" y="0" font-family="'FuturaStd-Bold'" font-size="11.1071" letter-spacing="4">Adam’s Profile</tspan><tspan x="0" y="36.7" font-family="'FuturaStd-Heavy'" font-size="11.1071">Membership:</tspan><tspan x="69.9" y="36.7" font-family="'FuturaStd-Book'" font-size="11.1071" letter-spacing="26">	</tspan><tspan x="100" y="36.7" font-family="'FuturaStd-Book'" font-size="11.1071">Other</tspan><tspan x="0" y="60" font-family="'FuturaStd-Heavy'" font-size="11.1071">Member Since:</tspan><tspan x="79.6" y="60" font-family="'FuturaStd-Book'" font-size="11.1071" letter-spacing="16">	</tspan><tspan x="100" y="60" font-family="'FuturaStd-Book'" font-size="11.1071">Oct. 20, 2014</tspan><tspan x="0" y="83.3" font-family="'FuturaStd-Heavy'" font-size="11.1071">Company Name:</tspan><tspan x="90.3" y="83.3" font-family="'FuturaStd-Book'" font-size="11.1071" letter-spacing="6">	</tspan><tspan x="100" y="83.3" font-family="'FuturaStd-Book'" font-size="11.1071">Alba</tspan><tspan x="0" y="106.6" font-family="'FuturaStd-Heavy'" font-size="11.1071">Industry:</tspan><tspan x="47.7" y="106.6" font-family="'FuturaStd-Book'" font-size="11.1071" letter-spacing="15">	</tspan><tspan x="66.6" y="106.6" font-family="'FuturaStd-Book'" font-size="11.1071">Graphic Design</tspan></text>
</g>
<g>
	<path fill="#FFFFFF" stroke="#000000" stroke-width="2" stroke-miterlimit="10" d="M288,274.5c0,22.3-15.2,40.3-37.5,40.3
		S213,296.8,213,274.5c0-22.3,15.2-37.5,37.5-37.5S288,252.3,288,274.5z"/>
	<path fill="none" stroke="#000000" stroke-width="2" stroke-miterlimit="10" d="M231.9,288.7c0,0,3.1,11.3,17.6,11.3
		c14.5,0,17.6-11.3,17.6-11.3"/>
	<path fill="none" stroke="#000000" stroke-width="2" stroke-miterlimit="10" d="M261.1,272.4c0,0,7.1,7.1,12.8,0"/>
	<path fill="none" stroke="#000000" stroke-width="2" stroke-miterlimit="10" d="M228.9,272.4c0,0,7.1,7.1,12.8,0"/>
	<path stroke="#000000" stroke-width="2" stroke-miterlimit="10" d="M231.4,239.6c0,0-9.7,33.1,60,26.9c0,0-7.2-28.7-31.4-32
		C241.6,231.9,231.4,239.6,231.4,239.6z"/>
	<path stroke="#000000" stroke-width="2" stroke-miterlimit="10" d="M235,237.8c0,0-7.8,22.9-25.6,34.9c0,0-0.7-13.8,4.4-20.5
		C221.3,242.6,235,237.8,235,237.8z"/>
	<path fill="#B0AEA1" stroke="#000000" stroke-width="2" stroke-miterlimit="10" d="M223.6,336.3l-0.2,37.8h54.3
		c0,0,0.2-17.2,0.6-36.5l-0.1-1.7c-0.2,10.9-0.7,28-0.7,28l0.3,10.2h11.8l-6.1-54.6l-21.4-1.2c-3.1-1.2-6.8-1.8-11.1-1.8h-1.2
		c-4.3,0-7.9,0.6-11.1,1.8l-22.2,1.2l-5,54.6h11.7v-11c0,0,0-16.4,0.2-27.8"/>
	<path stroke="#000000" stroke-width="2" stroke-miterlimit="10" d="M238.3,318c0,0,6.2,5.9,12.4,5.9c6.2,0,11.3-5.9,11.3-5.9
		S252.9,311.3,238.3,318z"/>
	<polygon stroke="#000000" stroke-width="2" stroke-miterlimit="10" points="258,333.2 272.8,333.2 272.8,349.4 266.1,349.2 
		258,349.4 	"/>
</g>
<path fill="none" stroke="#000000" stroke-width="2" stroke-miterlimit="10" d="M729.1,427.7h-353c-0.4,0-0.7-0.3-0.7-0.7v-28.8
	c0-0.4,0.3-0.7,0.7-0.7h353c0.4,0,0.7,0.3,0.7,0.7V427C729.9,427.4,729.5,427.7,729.1,427.7z"/>
<rect x="388.4" y="407.9" fill="none" width="359.2" height="29.5"/>
<text transform="matrix(1 0 0 1 388.4024 415.3412)" font-family="'FuturaStd-Bold'" font-size="9" letter-spacing="2">notify me when we are both in the space</text>
<path fill="none" stroke="#000000" stroke-width="2" stroke-miterlimit="10" d="M729.1,478.7h-353c-0.4,0-0.7-0.3-0.7-0.7v-28.8
	c0-0.4,0.3-0.7,0.7-0.7h353c0.4,0,0.7,0.3,0.7,0.7V478C729.9,478.3,729.5,478.7,729.1,478.7z"/>
<rect x="388.4" y="458.9" fill="none" width="308.9" height="29.5"/>
<text transform="matrix(1 0 0 1 388.4024 466.3315)" font-family="'FuturaStd-Bold'" font-size="9" letter-spacing="3">Send them my contact information</text>
<path fill="none" stroke="#000000" stroke-width="2" stroke-miterlimit="10" d="M729.1,529.7h-353c-0.4,0-0.7-0.3-0.7-0.7v-28.8
	c0-0.4,0.3-0.7,0.7-0.7h353c0.4,0,0.7,0.3,0.7,0.7v28.8C729.9,529.3,729.5,529.7,729.1,529.7z"/>
<rect x="388.4" y="509.9" fill="none" width="281.9" height="29.5"/>
<text transform="matrix(1 0 0 1 388.4024 517.3219)" font-family="'FuturaStd-Bold'" font-size="9" letter-spacing="3">go back to their Profile</text>
<rect x="376.5" y="245.2" fill="none" width="353.3" height="119"/>
<text transform="matrix(1 0 0 1 376.5147 254.3305)"><tspan x="0" y="0" font-family="'FuturaStd-Book'" font-size="11.1071">There are two ways you can use Nadine to connect with other </tspan><tspan x="0" y="17.3" font-family="'FuturaStd-Book'" font-size="11.1071">members. We don&apos;t give out any personal information so we </tspan><tspan x="0" y="34.7" font-family="'FuturaStd-Book'" font-size="11.1071">can&apos;t just give you their email address, but we can alert you </tspan><tspan x="0" y="52" font-family="'FuturaStd-Book'" font-size="11.1071">when you are both in the space at the same time, or we can </tspan><tspan x="0" y="69.3" font-family="'FuturaStd-Book'" font-size="11.1071">send an email to them with your information (alicegwicks@g</tspan><tspan x="328.2" y="69.3" font-family="'FuturaStd-Book'" font-size="11.1071">-</tspan><tspan x="0" y="86.6" font-family="'FuturaStd-Book'" font-size="11.1071">mail.com) and they can contact you.</tspan></text>
<rect x="149.3" y="85" fill="#214BA0" width="85.7" height="17.8"/>
<g>
	<rect x="157.6" y="88.9" fill="none" width="841.3" height="87.5"/>
	<text transform="matrix(1 0 0 1 157.641 98.5404)"><tspan x="0" y="0" fill="#FFFFFF" font-family="'FuturaStd-Heavy'" font-size="11.1071" letter-spacing="4">profile</tspan><tspan x="69.7" y="0" font-family="'FuturaStd-Medium'" font-size="11.1071" letter-spacing="27">	</tspan><tspan x="100" y="0" font-family="'FuturaStd-Medium'" font-size="11.1071" letter-spacing="4">members</tspan><tspan x="179.5" y="0" font-family="'FuturaStd-Medium'" font-size="11.1071" letter-spacing="17">	</tspan><tspan x="199.9" y="0" font-family="'FuturaStd-Medium'" font-size="11.1071" letter-spacing="4">events</tspan><tspan x="265" y="0" font-family="'FuturaStd-Medium'" font-size="11.1071" letter-spacing="-1">	</tspan><tspan x="266.6" y="0" font-family="'FuturaStd-Medium'" font-size="11.1071" letter-spacing="4">tags  </tspan><tspan x="327.1" y="0" font-family="'FuturaStd-Medium'" font-size="11.1071" letter-spacing="2">	</tspan><tspan x="333.2" y="0" font-family="'FuturaStd-Medium'" font-size="11.1071" letter-spacing="4">mailinglists</tspan><tspan x="454.4" y="0" font-family="'FuturaStd-Medium'" font-size="11.1071" letter-spacing="8">	</tspan><tspan x="466.5" y="0" font-family="'FuturaStd-Medium'" font-size="11.1071" letter-spacing="4"> chat </tspan><tspan x="527.3" y="0" font-family="'FuturaStd-Medium'" font-size="11.1071" letter-spacing="2">	</tspan></text>
</g>
</svg>
