<?xml version="1.0" encoding="utf-8"?>
<!-- Generator: Adobe Illustrator 18.1.1, SVG Export Plug-In . SVG Version: 6.00 Build 0)  -->
<!DOCTYPE svg PUBLIC "-//W3C//DTD SVG 1.1//EN" "http://www.w3.org/Graphics/SVG/1.1/DTD/svg11.dtd">
<svg version="1.1" id="Layer_1" xmlns="http://www.w3.org/2000/svg" xmlns:xlink="http://www.w3.org/1999/xlink" x="0px" y="0px"
	 viewBox="0 0 805.8 544.7" enable-background="new 0 0 805.8 544.7" xml:space="preserve">
<rect x="0.7" y="38.8" fill="#EFEFE7" width="805.8" height="505.4"/>
<rect x="0.7" y="37.3" fill="#FFFFFF" width="805.8" height="44.7"/>
<rect x="0.7" y="78.8" width="805.8" height="36.2"/>
<rect x="0.7" y="-0.5" fill="#E3E3E8" width="805.8" height="37.8"/>
<path fill="#FFFFFF" d="M111.5,115.7H19.8c0-25.3,20.5-45.8,45.8-45.8S111.5,90.4,111.5,115.7z"/>
<circle fill="#FFFFFF" stroke="#000000" stroke-width="1.5012" stroke-miterlimit="10" cx="65.7" cy="115.7" r="45.8"/>
<path fill="none" stroke="#000000" stroke-width="0.6672" stroke-miterlimit="10" d="M36.7,139.7c-5.9-6.7-9.5-15.6-9.5-25.2
	c0-21.1,17.1-38.2,38.2-38.2s38.2,17.1,38.2,38.2c0,9.2-3.2,17.6-8.6,24.1"/>
<path id="SVGID_x5F_1_x5F__8_" fill="none" d="M104.2,117c0-21.1-17.1-38.2-38.2-38.2S27.8,95.9,27.8,117s17.1,38.2,38.2,38.2
	S104.2,138.1,104.2,117z"/>
<text><textPath  xlink:href="#SVGID_x5F_1_x5F__8_" startOffset="82.361%">
<tspan  font-family="'FuturaStd-Heavy'" font-size="7.4694" letter-spacing="860">NADINE</tspan></textPath>
</text>
<g>
	<path fill="#B0AEA1" stroke="#000000" stroke-width="0.834" stroke-miterlimit="10" d="M73,124.6l4.4-17.8l-0.7-1.6
		c0,0,1.6,4.4,6.8,4.4s5.5-4.5,5.5-4.5H65.8h0H42.7c0,0,0.3,4.5,5.5,4.5s6.8-4.4,6.8-4.4l-1,1.6l4.4,17.8"/>
	<path fill="#FFFFFF" stroke="#000000" stroke-width="1.0008" stroke-miterlimit="10" d="M74,127.6c0,2.5-3.3,3.7-8.4,3.7
		s-8.2-1.3-8.2-3.7c0-4.1,3.2-4.5,8.2-4.5S74,122.8,74,127.6z"/>
	<line fill="none" stroke="#000000" stroke-width="1.0008" stroke-miterlimit="10" x1="54" y1="106.9" x2="58.3" y2="124.6"/>
	<ellipse cx="61.6" cy="126.4" rx="1" ry="0.7"/>
	<ellipse cx="70" cy="126.4" rx="1" ry="0.7"/>
	<path fill="none" stroke="#000000" stroke-width="1.0008" stroke-miterlimit="10" d="M58.7,113c0,0,2.1,2.4,4.6,0"/>
	<path fill="none" stroke="#000000" stroke-width="1.0008" stroke-miterlimit="10" d="M68.1,113c0,0,2.1,2.4,4.6,0"/>
	<path stroke="#000000" stroke-width="1.0008" stroke-miterlimit="10" d="M57.6,97.8c0-0.1,0-0.1-0.2,0c-0.7,0.3-2.2,1.3-2.2,3.5
		c0,3,1.6,3.8,1.6,3.8h1.6c0,0-2.6-1.5-2.4-4C56.3,98.5,57.5,98.5,57.6,97.8z"/>
	<path stroke="#000000" stroke-width="1.0008" stroke-miterlimit="10" d="M73.8,97.8c0-0.1,0-0.1,0.2,0c0.7,0.3,2.2,1.3,2.2,3.5
		c0,3-1.6,3.8-1.6,3.8H73c0,0,2.6-1.5,2.4-4C75.1,98.5,73.9,98.5,73.8,97.8z"/>
	<path fill="#FFFFFF" stroke="#000000" stroke-width="1.0008" stroke-miterlimit="10" d="M70.4,131c0,1.7-1.3,2.3-4.7,2.3
		c-3.4,0-4.8-0.7-4.8-2.3H70.4z"/>
</g>
<circle fill="#DF6F65" cx="19.8" cy="19.9" r="7.4"/>
<circle fill="#E5BB45" cx="46.2" cy="19.9" r="7.4"/>
<circle fill="#66C189" cx="72.6" cy="19.9" r="7.4"/>
<path fill="#FFFFFF" d="M795.7,30.8H115.1c-2,0-3.6-1.6-3.6-3.6V12.6c0-2,1.6-3.6,3.6-3.6h680.6c2,0,3.6,1.6,3.6,3.6v14.6
	C799.3,29.2,797.7,30.8,795.7,30.8z"/>
<g>
	<path d="M784.6,16.1h1.6v3.1h3.1v1.6h-3.1v3.1h-1.6v-3.1h-3.1v-1.6h3.1V16.1z"/>
</g>
<path fill="none" stroke="#000000" stroke-width="1.5012" stroke-miterlimit="10" d="M747.8,66.8v3.6c0,0.3-0.2,0.5-0.5,0.5h-16.6
	c-0.3,0-0.5-0.2-0.5-0.5V48.5c0-0.3,0.2-0.5,0.5-0.5h16.6c0.3,0,0.5,0.2,0.5,0.5v3.4"/>
<polyline fill="none" stroke="#000000" stroke-width="1.5012" stroke-miterlimit="10" points="733.9,60.2 743,60.2 749.6,60.2 
	744,65.7 "/>
<polyline fill="none" stroke="#000000" stroke-width="1.5012" stroke-miterlimit="10" points="733.9,58.1 743,58.1 749.6,58.1 
	744,52.5 "/>
<g>
	<rect x="158.4" y="94" fill="none" width="841.3" height="19"/>
	<text transform="matrix(1 0 0 1 158.3639 102.6587)"><tspan x="0" y="0" fill="#FFFFFF" font-family="'FuturaStd-Medium'" font-size="10" letter-spacing="4">to do  members list  activity  billing  </tspan><tspan x="349.2" y="0" fill="#214BA0" font-family="'FuturaStd-Bold'" font-size="10" letter-spacing="4">stats</tspan><tspan x="400" y="0" fill="#FFFFFF" font-family="'FuturaStd-Medium'" font-size="10" letter-spacing="4">  logs  lists</tspan></text>
</g>
<g>
	<rect x="158.4" y="56.3" fill="none" width="841.3" height="87.5"/>
	<text transform="matrix(1 0 0 1 158.3639 64.7782)"><tspan x="0" y="0" fill="#214BA0" font-family="'FuturaStd-Heavy'" font-size="10" letter-spacing="4">staff view </tspan><tspan x="99.1" y="0" font-family="'FuturaStd-Heavy'" font-size="10" letter-spacing="4">/ member view</tspan></text>
</g>
<g>
	<rect x="157.3" y="185.2" fill="none" width="523.3" height="17"/>
	<text transform="matrix(1 0 0 1 157.2521 194.3826)" font-family="'FuturaStd-Bold'" font-size="11.1071" letter-spacing="4">monthlt membership income by day</text>
</g>
<rect x="169.5" y="224" fill="none" width="139.9" height="14.8"/>
<text transform="matrix(1 0 0 1 169.4837 231.428)"><tspan x="0" y="0" font-family="'FuturaStd-Bold'" font-size="9" letter-spacing="2">from: </tspan><tspan x="51.3" y="0" fill="#214BA0" font-family="'FuturaStd-Bold'" font-size="9" letter-spacing="2">2015-01-02</tspan></text>
<rect x="324.7" y="224" fill="none" width="139.9" height="14.8"/>
<text transform="matrix(1 0 0 1 324.6862 231.428)"><tspan x="0" y="0" font-family="'FuturaStd-Bold'" font-size="9" letter-spacing="2">to: </tspan><tspan x="30.5" y="0" fill="#214BA0" font-family="'FuturaStd-Bold'" font-size="9" letter-spacing="2">2015-02-02</tspan></text>
<path fill="none" stroke="#000000" stroke-width="1.6609" stroke-miterlimit="10" d="M439.7,240.7h-86.6c-0.4,0-0.7-0.3-0.7-0.7v-22
	c0-0.4,0.3-0.7,0.7-0.7h86.6c0.4,0,0.7,0.3,0.7,0.7v22C440.5,240.4,440.1,240.7,439.7,240.7z"/>
<path fill="none" stroke="#000000" stroke-width="1.5652" stroke-miterlimit="10" d="M307.8,240.7h-92.4c-0.4,0-0.7-0.3-0.7-0.7v-22
	c0-0.4,0.3-0.7,0.7-0.7h92.4c0.4,0,0.7,0.3,0.7,0.7v22C308.5,240.4,308.2,240.7,307.8,240.7z"/>
<path fill="none" stroke="#000000" stroke-width="1.9386" stroke-miterlimit="10" d="M528.7,240.3h-61.1c-0.4,0-0.7-0.3-0.7-0.7
	v-21.3c0-0.4,0.3-0.7,0.7-0.7h61.1c0.4,0,0.7,0.3,0.7,0.7v21.3C529.4,240,529.1,240.3,528.7,240.3z"/>
<rect x="474.9" y="225.6" fill="none" width="278.4" height="22.9"/>
<text transform="matrix(1 0 0 1 474.9261 231.4374)" font-family="'FuturaStd-Bold'" font-size="6.9739" letter-spacing="2">SET PAID</text>
<line fill="none" stroke="#000000" stroke-width="1.4678" stroke-miterlimit="10" x1="232.9" y1="301.6" x2="657.2" y2="301.6"/>
<line fill="none" stroke="#000000" stroke-width="1.4678" stroke-miterlimit="10" x1="232.9" y1="356.7" x2="657.2" y2="356.7"/>
<line fill="none" stroke="#000000" stroke-width="1.4678" stroke-miterlimit="10" x1="232.9" y1="411.9" x2="657.2" y2="411.9"/>
<line fill="none" stroke="#000000" stroke-width="1.4678" stroke-miterlimit="10" x1="232.9" y1="467" x2="657.2" y2="467"/>
<line fill="none" stroke="#000000" stroke-width="1.4678" stroke-miterlimit="10" x1="232.9" y1="522.2" x2="657.2" y2="522.2"/>
<rect x="155.9" y="297.6" fill="none" width="73.9" height="12.6"/>
<text transform="matrix(1 0 0 1 155.9335 303.5096)" font-family="'FuturaStd-Bold'" font-size="7.0718" letter-spacing="2">$29,900</text>
<rect x="155.9" y="352.8" fill="none" width="73.9" height="12.6"/>
<text transform="matrix(1 0 0 1 155.9335 358.6698)" font-family="'FuturaStd-Bold'" font-size="7.0718" letter-spacing="2">$28,023</text>
<rect x="155.9" y="408.7" fill="none" width="73.9" height="12.6"/>
<text transform="matrix(1 0 0 1 155.9335 414.6178)" font-family="'FuturaStd-Bold'" font-size="7.0718" letter-spacing="2">$26,540</text>
<rect x="155.9" y="463.9" fill="none" width="73.9" height="12.6"/>
<text transform="matrix(1 0 0 1 155.9335 469.778)" font-family="'FuturaStd-Bold'" font-size="7.0718" letter-spacing="2">$25,500</text>
<rect x="155.9" y="519.1" fill="none" width="73.9" height="12.6"/>
<text transform="matrix(1 0 0 1 155.9335 524.9382)" font-family="'FuturaStd-Bold'" font-size="7.0718" letter-spacing="2">$23,500</text>
<polyline fill="none" stroke="#214BA0" stroke-miterlimit="10" points="232.9,542.8 232.9,535.7 241.6,470.2 244.7,476.5 
	250.2,421.3 254.9,377 263.6,377 263.6,439.9 268.3,425.7 273,433.6 273,454 277.7,454.8 277.7,545.2 283.2,531.6 289.5,525.4 
	289.5,507.4 297.4,499.6 297.4,479.9 304.4,499.6 304.4,463.9 309.9,467 309.9,454 309.9,432.8 317.8,432.8 317.8,442.2 
	324.9,425.7 334.3,485.4 339.8,476.5 346.1,531.6 355.5,511.4 361,522.2 361,476.5 368.1,506.7 372.8,487 379.1,519.1 383.8,512.9 
	383.8,536.5 389.3,538.9 389.3,530.1 397.1,525.4 404.2,545 415.2,545 415.2,544.4 421.5,539.5 424.7,531.6 433.3,519.1 
	433.3,456.4 445.1,467 449.8,453.2 449.8,476.5 459.2,470.5 465.5,435.9 470.2,470.5 474.9,445.4 484.4,455.6 484.4,435.1 
	488.3,446.1 492.2,429.6 492.2,446.9 498.5,432.8 498.5,451.6 498.5,457.9 503.2,445.4 512.7,448.5 512.7,437.5 518.2,436.7 
	518.2,424.9 523.7,438.3 529.2,421.3 529.2,452.4 536.2,435.1 545.7,377 552.7,388 553.8,376 555.9,352.8 563.7,378.6 570,377.8 
	570,387.2 577.9,365.4 584.9,365.4 584.9,348.7 591.2,356.7 591.2,327.5 602.2,352.8 609.3,352.8 613.2,381.7 620.3,361 
	625.8,365.4 625.8,344 636.8,359.1 643.1,322 643.1,313.4 651.7,318.9 654.1,365.4 "/>
<line fill="none" stroke="#ED2326" stroke-miterlimit="10" x1="235.5" y1="385.8" x2="659.8" y2="385.8"/>
<g>
	<rect x="158.4" y="133.1" fill="none" width="841.3" height="27.2"/>
	<text transform="matrix(1 0 0 1 158.3636 140.0855)"><tspan x="0" y="0" font-family="'FuturaStd-Medium'" font-size="8" letter-spacing="2">daily logs | neghborhoods | monthly members | membership history | </tspan><tspan x="491.1" y="0" font-family="'FuturaStd-Book'" font-size="8" letter-spacing="2">gender balance</tspan><tspan x="600.8" y="0" font-family="'FuturaStd-Medium'" font-size="8" letter-spacing="2"> |  </tspan><tspan x="0" y="13.6" font-family="'FuturaStd-Medium'" font-size="8" letter-spacing="2">membership days |  history graphs  |  </tspan><tspan x="265.9" y="13.6" fill="#214BA0" font-family="'FuturaStd-Bold'" font-size="8" letter-spacing="2">income graph</tspan><tspan x="367.6" y="13.6" font-family="'FuturaStd-Medium'" font-size="8" letter-spacing="2">  |  member graph </tspan></text>
</g>
</svg>
