<?xml version="1.0" encoding="utf-8"?>
<!-- Generator: Adobe Illustrator 18.1.1, SVG Export Plug-In . SVG Version: 6.00 Build 0)  -->
<!DOCTYPE svg PUBLIC "-//W3C//DTD SVG 1.1//EN" "http://www.w3.org/Graphics/SVG/1.1/DTD/svg11.dtd">
<svg version="1.1" id="Layer_1" xmlns="http://www.w3.org/2000/svg" xmlns:xlink="http://www.w3.org/1999/xlink" x="0px" y="0px"
	 viewBox="0 0 805.8 544.7" enable-background="new 0 0 805.8 544.7" xml:space="preserve">
<rect x="0" y="38.3" fill="#EFEFE7" width="805.8" height="505.4"/>
<rect x="0" y="36.8" fill="#FFFFFF" width="805.8" height="79.9"/>
<rect x="0" y="-1" fill="#E3E3E8" width="805.8" height="37.8"/>
<path fill="none" stroke="#000000" stroke-width="0.6672" stroke-miterlimit="10" d="M35.9,137.2c-5.9-6.7-9.5-15.6-9.5-25.2
	c0-21.1,17.1-38.2,38.2-38.2s38.2,17.1,38.2,38.2c0,9.2-3.2,17.6-8.6,24.1"/>
<path id="SVGID_x5F_1_x5F__4_" fill="none" d="M103.5,114.5c0-21.1-17.1-38.2-38.2-38.2s-38.2,17.1-38.2,38.2s17.1,38.2,38.2,38.2
	S103.5,135.6,103.5,114.5z"/>
<text><textPath  xlink:href="#SVGID_x5F_1_x5F__4_" startOffset="82.361%">
<tspan  font-family="'FuturaStd-Heavy'" font-size="7.4694" letter-spacing="860">NADINE</tspan></textPath>
</text>
<g>
	<path fill="#B0AEA1" stroke="#000000" stroke-width="0.834" stroke-miterlimit="10" d="M72.3,122.2l4.4-17.8l-0.7-1.6
		c0,0,1.6,4.4,6.8,4.4s5.5-4.5,5.5-4.5H65.1h0H41.9c0,0,0.3,4.5,5.5,4.5s6.8-4.4,6.8-4.4l-1,1.6l4.4,17.8"/>
	<path fill="#FFFFFF" stroke="#000000" stroke-width="1.0008" stroke-miterlimit="10" d="M73.3,125.1c0,2.5-3.3,3.7-8.4,3.7
		s-8.2-1.3-8.2-3.7c0-4.1,3.2-4.5,8.2-4.5S73.3,120.3,73.3,125.1z"/>
	<line fill="none" stroke="#000000" stroke-width="1.0008" stroke-miterlimit="10" x1="53.3" y1="104.4" x2="57.6" y2="122.2"/>
	<ellipse cx="60.8" cy="123.9" rx="1" ry="0.7"/>
	<ellipse cx="69.3" cy="123.9" rx="1" ry="0.7"/>
	<path fill="none" stroke="#000000" stroke-width="1.0008" stroke-miterlimit="10" d="M58,110.5c0,0,2.1,2.4,4.6,0"/>
	<path fill="none" stroke="#000000" stroke-width="1.0008" stroke-miterlimit="10" d="M67.4,110.5c0,0,2.1,2.4,4.6,0"/>
	<path stroke="#000000" stroke-width="1.0008" stroke-miterlimit="10" d="M56.8,95.3c0-0.1,0-0.1-0.2,0c-0.7,0.3-2.2,1.3-2.2,3.5
		c0,3,1.6,3.8,1.6,3.8h1.6c0,0-2.6-1.5-2.4-4C55.6,96,56.8,96,56.8,95.3z"/>
	<path stroke="#000000" stroke-width="1.0008" stroke-miterlimit="10" d="M73,95.3c0-0.1,0-0.1,0.2,0c0.7,0.3,2.2,1.3,2.2,3.5
		c0,3-1.6,3.8-1.6,3.8h-1.6c0,0,2.6-1.5,2.4-4C74.3,96,73.1,96,73,95.3z"/>
	<path fill="#FFFFFF" stroke="#000000" stroke-width="1.0008" stroke-miterlimit="10" d="M69.7,128.5c0,1.7-1.3,2.3-4.7,2.3
		c-3.4,0-4.8-0.7-4.8-2.3H69.7z"/>
</g>
<circle fill="none" stroke="#000000" stroke-width="1.5012" stroke-miterlimit="10" cx="65" cy="113.3" r="45.8"/>
<circle fill="#DF6F65" cx="19.1" cy="19.4" r="7.4"/>
<circle fill="#E5BB45" cx="45.5" cy="19.4" r="7.4"/>
<circle fill="#66C189" cx="71.9" cy="19.4" r="7.4"/>
<path fill="#FFFFFF" d="M795,30.4H114.4c-2,0-3.6-1.6-3.6-3.6V12.2c0-2,1.6-3.6,3.6-3.6H795c2,0,3.6,1.6,3.6,3.6v14.6
	C798.6,28.8,797,30.4,795,30.4z"/>
<g>
	<path d="M783.8,15.6h1.6v3.1h3.1v1.6h-3.1v3.1h-1.6v-3.1h-3.1v-1.6h3.1V15.6z"/>
</g>
<path fill="none" stroke="#000000" stroke-width="1.5012" stroke-miterlimit="10" d="M747.1,100.3v3.6c0,0.3-0.2,0.5-0.5,0.5h-16.6
	c-0.3,0-0.5-0.2-0.5-0.5V82c0-0.3,0.2-0.5,0.5-0.5h16.6c0.3,0,0.5,0.2,0.5,0.5v3.4"/>
<polyline fill="none" stroke="#000000" stroke-width="1.5012" stroke-miterlimit="10" points="733.1,93.7 742.3,93.7 748.9,93.7 
	743.3,99.3 "/>
<polyline fill="none" stroke="#000000" stroke-width="1.5012" stroke-miterlimit="10" points="733.1,91.6 742.3,91.6 748.9,91.6 
	743.3,86.1 "/>
<g>
	<rect x="157.7" y="211.5" fill="none" width="276.8" height="17"/>
	<text transform="matrix(1 0 0 1 157.6685 220.7344)" font-family="'FuturaStd-Bold'" font-size="11.1071" letter-spacing="4">all member tags</text>
</g>
<rect x="440.5" y="84.7" fill="#214BA0" width="68.3" height="17.8"/>
<g>
	<rect x="157.6" y="87.9" fill="none" width="841.3" height="49.3"/>
	<text transform="matrix(1 0 0 1 157.641 97.5874)"><tspan x="0" y="0" font-family="'FuturaStd-Medium'" font-size="11.1071" letter-spacing="4">profile</tspan><tspan x="69.7" y="0" font-family="'FuturaStd-Medium'" font-size="11.1071" letter-spacing="27">	</tspan><tspan x="100" y="0" font-family="'FuturaStd-Medium'" font-size="11.1071" letter-spacing="4">members</tspan><tspan x="179.5" y="0" font-family="'FuturaStd-Medium'" font-size="11.1071" letter-spacing="17">	</tspan><tspan x="199.9" y="0" font-family="'FuturaStd-Medium'" font-size="11.1071" letter-spacing="4">events </tspan><tspan x="272.7" y="0" font-family="'FuturaStd-Medium'" font-size="11.1071" letter-spacing="24">	</tspan><tspan x="299.9" y="0" fill="#FFFFFF" font-family="'FuturaStd-Heavy'" font-size="11.1071" letter-spacing="4">tags</tspan><tspan x="344.2" y="0" font-family="'FuturaStd-Medium'" font-size="11.1071" letter-spacing="4">  </tspan><tspan x="359.5" y="0" font-family="'FuturaStd-Medium'" font-size="11.1071" letter-spacing="3">	</tspan><tspan x="366.5" y="0" font-family="'FuturaStd-Medium'" font-size="11.1071" letter-spacing="4">mailinglists</tspan><tspan x="487.8" y="0" font-family="'FuturaStd-Medium'" font-size="11.1071" letter-spacing="8">	</tspan><tspan x="499.8" y="0" font-family="'FuturaStd-Medium'" font-size="11.1071" letter-spacing="4"> chat </tspan><tspan x="560.6" y="0" font-family="'FuturaStd-Medium'" font-size="11.1071" letter-spacing="2">	</tspan></text>
</g>
<text transform="matrix(1 0 0 1 293.463 307.619)" fill="#214BA0" font-family="'FuturaStd-Heavy'" font-size="36.7564" letter-spacing="9">biking</text>
<text transform="matrix(1 0 0 1 117.0636 377.6601)" fill="#214BA0" font-family="'FuturaStd-Heavy'" font-size="47.4922" letter-spacing="12">coworking</text>
<text transform="matrix(1 0 0 1 196.6456 474.1044)" font-family="'FuturaStd-Heavy'" font-size="21.5735" letter-spacing="5">pyton</text>
<text transform="matrix(1 0 0 1 293.463 474.286)" font-family="'FuturaStd-Heavy'" font-size="12.8854" letter-spacing="3">CONSULTING</text>
<text transform="matrix(1 0 0 1 397.6573 405.9149)" font-family="'FuturaStd-Heavy'" font-size="10.1982" letter-spacing="2">SOFTWARE</text>
<text transform="matrix(1 0 0 1 409.4581 494.6737)" font-family="'FuturaStd-Heavy'" font-size="36.7463" letter-spacing="9">FOOD</text>
<text transform="matrix(1 0 0 1 333.1486 439.6248)" font-family="'FuturaStd-Heavy'" font-size="29.7343" letter-spacing="7">BOOKS</text>
<text transform="matrix(1 0 0 1 162.2365 406.161)" font-family="'FuturaStd-Heavy'" font-size="20.2347" letter-spacing="5">PRODUCT DESIGN</text>
<text transform="matrix(1 0 0 1 219.5148 307.7763)" font-family="'FuturaStd-Heavy'" font-size="12.6486" letter-spacing="3">django</text>
<text transform="matrix(1 0 0 1 615.0255 454.7968)" font-family="'FuturaStd-Heavy'" font-size="15.9724" letter-spacing="4">cycling</text>
<text transform="matrix(1 0 0 1 465.1124 331.6044)" fill="#214BA0" font-family="'FuturaStd-Heavy'" font-size="33.1704" letter-spacing="8">coffee</text>
<text transform="matrix(1 0 0 1 571.0685 403.5556)" font-family="'FuturaStd-Heavy'" font-size="15.3278" letter-spacing="3">community</text>
<text transform="matrix(1 0 0 1 225.1691 421.9579)" font-family="'FuturaStd-Heavy'" font-size="8.0692" letter-spacing="2">central district</text>
<text transform="matrix(1 0 0 1 399.1818 394.4013)" fill="#B0AEA1" font-family="'FuturaStd-Heavy'" font-size="5.4272" letter-spacing="1">introvert</text>
<text transform="matrix(1 0 0 1 219.8165 292.5146)" fill="#B0AEA1" font-family="'FuturaStd-Heavy'" font-size="7.5825" letter-spacing="1">electronics</text>
<text transform="matrix(1 0 0 1 615.0255 437.6902)" font-family="'FuturaStd-Heavy'" font-size="6.5671" letter-spacing="1">ex cc</text>
<text transform="matrix(1 0 0 1 133.2121 472.9276)" font-family="'FuturaStd-Heavy'" font-size="15.1771" letter-spacing="3">beats</text>
<text transform="matrix(1 0 0 1 178.591 332.2509)" fill="#B0AEA1" font-family="'FuturaStd-Heavy'" font-size="9.2966" letter-spacing="2">ballard</text>
<text transform="matrix(1 0 0 1 116.5988 516.1259)" fill="#214BA0" font-family="'FuturaStd-Heavy'" font-size="42.3952" letter-spacing="11">seattle</text>
<text transform="matrix(1 0 0 1 411.3028 517.4706)" font-family="'FuturaStd-Heavy'" font-size="17.6755" letter-spacing="4">pacific north west</text>
<text transform="matrix(1 0 0 1 340.1945 516.7949)" fill="#B0AEA1" font-family="'FuturaStd-Heavy'" font-size="10.8686" letter-spacing="2">spanish</text>
<text transform="matrix(1 0 0 1 334.2325 454.9021)" font-family="'FuturaStd-Heavy'" font-size="9.59" letter-spacing="2">digital marketing</text>
<text transform="matrix(1 0 0 1 515.4357 352.2821)" font-family="'FuturaStd-Heavy'" font-size="10.3724" letter-spacing="2">php</text>
<text transform="matrix(1 0 0 1 340.1945 499.7244)" font-family="'FuturaStd-Heavy'" font-size="20.4708" letter-spacing="5">KIDS</text>
<text transform="matrix(1 0 0 1 546.4991 352.9999)" font-family="'FuturaStd-Heavy'" font-size="14.6431" letter-spacing="3">LAW</text>
<text transform="matrix(1 0 0 1 238.7619 335.0194)" font-family="'FuturaStd-Heavy'" font-size="20.2797" letter-spacing="5">GLOBAL CITIZEN</text>
<text transform="matrix(1 0 0 1 548.8898 493.2185)" fill="#214BA0" font-family="'FuturaStd-Heavy'" font-size="20.2166" letter-spacing="5">DESIGN</text>
<text transform="matrix(1 0 0 1 472.8136 424.0712)" font-family="'FuturaStd-Heavy'" font-size="45.2271" letter-spacing="11">DIY</text>
<text transform="matrix(1 0 0 1 163.1281 448.5418)" font-family="'FuturaStd-Heavy'" font-size="23.8739" letter-spacing="6">SOFTWARE</text>
<text transform="matrix(1 0 0 1 571.6398 421.1591)" fill="#B0AEA1" font-family="'FuturaStd-Heavy'" font-size="10.1847" letter-spacing="2">JAVA</text>
<text transform="matrix(1 0 0 1 549.5948 470.8621)" fill="#B0AEA1" font-family="'FuturaStd-Heavy'" font-size="8.8302" letter-spacing="2">ARCHITECTURE</text>
<text transform="matrix(1 0 0 1 480.6027 455.5183)" font-family="'FuturaStd-Heavy'" font-size="28.9837" letter-spacing="7">TRAVEL</text>
<text transform="matrix(1 0 0 1 465.1124 295.8876)" font-family="'FuturaStd-Heavy'" font-size="18.6036" letter-spacing="4">WRITING</text>
<text transform="matrix(1 0 0 1 512.0509 377.6601)" font-family="'FuturaStd-Heavy'" font-size="20.2136" letter-spacing="5">CAPITOL HILL</text>
</svg>
