<?xml version="1.0" encoding="utf-8"?>
<!-- Generator: Adobe Illustrator 18.1.1, SVG Export Plug-In . SVG Version: 6.00 Build 0)  -->
<!DOCTYPE svg PUBLIC "-//W3C//DTD SVG 1.1//EN" "http://www.w3.org/Graphics/SVG/1.1/DTD/svg11.dtd">
<svg version="1.1" id="Layer_1" xmlns="http://www.w3.org/2000/svg" xmlns:xlink="http://www.w3.org/1999/xlink" x="0px" y="0px"
	 viewBox="0 0 805.8 544.7" enable-background="new 0 0 805.8 544.7" xml:space="preserve">
<rect x="0.7" y="38.8" fill="#EFEFE7" width="805.8" height="505.4"/>
<rect x="0.7" y="37.3" fill="#FFFFFF" width="805.8" height="44.7"/>
<rect x="0.7" y="78.8" width="805.8" height="36.2"/>
<rect x="0.7" y="-0.5" fill="#E3E3E8" width="805.8" height="37.8"/>
<path fill="#FFFFFF" d="M111.5,115.8H19.8c0-25.3,20.5-45.8,45.8-45.8S111.5,90.4,111.5,115.8z"/>
<circle fill="#FFFFFF" stroke="#000000" stroke-width="1.5012" stroke-miterlimit="10" cx="65.7" cy="115.8" r="45.8"/>
<path fill="none" stroke="#000000" stroke-width="0.6672" stroke-miterlimit="10" d="M36.7,139.7c-5.9-6.7-9.5-15.6-9.5-25.2
	c0-21.1,17.1-38.2,38.2-38.2s38.2,17.1,38.2,38.2c0,9.2-3.2,17.6-8.6,24.1"/>
<path id="SVGID_x5F_1_x5F__6_" fill="none" d="M104.2,117c0-21.1-17.1-38.2-38.2-38.2S27.8,95.9,27.8,117s17.1,38.2,38.2,38.2
	S104.2,138.1,104.2,117z"/>
<text><textPath  xlink:href="#SVGID_x5F_1_x5F__6_" startOffset="82.361%">
<tspan  font-family="'FuturaStd-Heavy'" font-size="7.4694" letter-spacing="860">NADINE</tspan></textPath>
</text>
<g>
	<path fill="#B0AEA1" stroke="#000000" stroke-width="0.834" stroke-miterlimit="10" d="M73,124.7l4.4-17.8l-0.7-1.6
		c0,0,1.6,4.4,6.8,4.4s5.5-4.5,5.5-4.5H65.8h0H42.7c0,0,0.3,4.5,5.5,4.5s6.8-4.4,6.8-4.4l-1,1.6l4.4,17.8"/>
	<path fill="#FFFFFF" stroke="#000000" stroke-width="1.0008" stroke-miterlimit="10" d="M74,127.6c0,2.5-3.3,3.7-8.4,3.7
		s-8.2-1.3-8.2-3.7c0-4.1,3.2-4.5,8.2-4.5S74,122.8,74,127.6z"/>
	<line fill="none" stroke="#000000" stroke-width="1.0008" stroke-miterlimit="10" x1="54" y1="106.9" x2="58.3" y2="124.7"/>
	<ellipse cx="61.6" cy="126.4" rx="1" ry="0.7"/>
	<ellipse cx="70" cy="126.4" rx="1" ry="0.7"/>
	<path fill="none" stroke="#000000" stroke-width="1.0008" stroke-miterlimit="10" d="M58.7,113c0,0,2.1,2.4,4.6,0"/>
	<path fill="none" stroke="#000000" stroke-width="1.0008" stroke-miterlimit="10" d="M68.1,113c0,0,2.1,2.4,4.6,0"/>
	<path stroke="#000000" stroke-width="1.0008" stroke-miterlimit="10" d="M57.6,97.8c0-0.1,0-0.1-0.2,0c-0.7,0.3-2.2,1.3-2.2,3.5
		c0,3,1.6,3.8,1.6,3.8h1.6c0,0-2.6-1.5-2.4-4S57.5,98.5,57.6,97.8z"/>
	<path stroke="#000000" stroke-width="1.0008" stroke-miterlimit="10" d="M73.8,97.8c0-0.1,0-0.1,0.2,0c0.7,0.3,2.2,1.3,2.2,3.5
		c0,3-1.6,3.8-1.6,3.8H73c0,0,2.6-1.5,2.4-4C75.1,98.5,73.9,98.5,73.8,97.8z"/>
	<path fill="#FFFFFF" stroke="#000000" stroke-width="1.0008" stroke-miterlimit="10" d="M70.4,131c0,1.7-1.3,2.3-4.7,2.3
		c-3.4,0-4.8-0.7-4.8-2.3H70.4z"/>
</g>
<circle fill="#DF6F65" cx="19.8" cy="19.9" r="7.4"/>
<circle fill="#E5BB45" cx="46.2" cy="19.9" r="7.4"/>
<circle fill="#66C189" cx="72.6" cy="19.9" r="7.4"/>
<path fill="#FFFFFF" d="M795.7,30.9H115.1c-2,0-3.6-1.6-3.6-3.6V12.7c0-2,1.6-3.6,3.6-3.6h680.6c2,0,3.6,1.6,3.6,3.6v14.6
	C799.3,29.2,797.7,30.9,795.7,30.9z"/>
<g>
	<path d="M784.6,16.1h1.6v3.1h3.1v1.6h-3.1v3.1h-1.6v-3.1h-3.1v-1.6h3.1V16.1z"/>
</g>
<path fill="none" stroke="#000000" stroke-width="1.5012" stroke-miterlimit="10" d="M747.8,66.8v3.6c0,0.3-0.2,0.5-0.5,0.5h-16.6
	c-0.3,0-0.5-0.2-0.5-0.5V48.5c0-0.3,0.2-0.5,0.5-0.5h16.6c0.3,0,0.5,0.2,0.5,0.5v3.4"/>
<polyline fill="none" stroke="#000000" stroke-width="1.5012" stroke-miterlimit="10" points="733.9,60.2 743,60.2 749.6,60.2 
	744,65.7 "/>
<polyline fill="none" stroke="#000000" stroke-width="1.5012" stroke-miterlimit="10" points="733.9,58.1 743,58.1 749.6,58.1 
	744,52.6 "/>
<g>
	<rect x="158.4" y="94" fill="none" width="841.3" height="19"/>
	<text transform="matrix(1 0 0 1 158.3639 102.6784)"><tspan x="0" y="0" fill="#FFFFFF" font-family="'FuturaStd-Medium'" font-size="10" letter-spacing="4">to do  members list  activity  </tspan><tspan x="274.1" y="0" fill="#214BA0" font-family="'FuturaStd-Bold'" font-size="10" letter-spacing="4">billing</tspan><tspan x="342.5" y="0" fill="#FFFFFF" font-family="'FuturaStd-Medium'" font-size="10" letter-spacing="4">  stats  logs  lists</tspan></text>
</g>
<g>
	<rect x="158.4" y="132" fill="none" width="841.3" height="19"/>
	<text transform="matrix(1 0 0 1 158.3639 138.9221)"><tspan x="0" y="0" fill="#214BA0" font-family="'FuturaStd-Medium'" font-size="8" letter-spacing="3">record activity</tspan><tspan x="112" y="0" font-family="'FuturaStd-Medium'" font-size="8" letter-spacing="3"> | view bills | usaepay | auto-billing | Run billing</tspan></text>
</g>
<g>
	<rect x="158.4" y="56.3" fill="none" width="841.3" height="87.5"/>
	<text transform="matrix(1 0 0 1 158.3639 64.7978)"><tspan x="0" y="0" fill="#214BA0" font-family="'FuturaStd-Heavy'" font-size="10" letter-spacing="4">staff view </tspan><tspan x="99.1" y="0" font-family="'FuturaStd-Heavy'" font-size="10" letter-spacing="4">/ member view</tspan></text>
</g>
<rect x="302.8" y="284.2" fill="none" width="139.9" height="14.8"/>
<text transform="matrix(1 0 0 1 302.8063 291.6409)"><tspan x="0" y="0" font-family="'FuturaStd-Bold'" font-size="9" letter-spacing="2">$:  </tspan><tspan x="27" y="0" fill="#214BA0" font-family="'FuturaStd-Bold'" font-size="9" letter-spacing="2">360</tspan></text>
<rect x="201.3" y="284.2" fill="none" width="97.9" height="16.6"/>
<text transform="matrix(1 0 0 1 201.2875 291.7161)" fill="#214BA0" font-family="'FuturaStd-Bold'" font-size="9" letter-spacing="2">fred MARF</text>
<path fill="none" stroke="#000000" stroke-miterlimit="10" d="M359.9,299.9h-35.5c-0.4,0-0.7-0.3-0.7-0.7v-22c0-0.4,0.3-0.7,0.7-0.7
	h35.5c0.4,0,0.7,0.3,0.7,0.7v22C360.6,299.6,360.3,299.9,359.9,299.9z"/>
<g>
	<rect x="157.3" y="185.2" fill="none" width="523.3" height="17"/>
	<text transform="matrix(1 0 0 1 157.2521 194.4022)" font-family="'FuturaStd-Bold'" font-size="11.1071" letter-spacing="4">outstanding bills</text>
</g>
<rect x="157.3" y="250.5" fill="none" width="94" height="16"/>
<text transform="matrix(1 0 0 1 157.2519 257.9228)" font-family="'FuturaStd-Bold'" font-size="9" letter-spacing="3">1.31.2015</text>
<path fill="none" stroke="#000000" stroke-width="1.9386" stroke-miterlimit="10" d="M435.4,299.8h-61.1c-0.4,0-0.7-0.3-0.7-0.7
	v-21.3c0-0.4,0.3-0.7,0.7-0.7h61.1c0.4,0,0.7,0.3,0.7,0.7v21.3C436.1,299.5,435.8,299.8,435.4,299.8z"/>
<rect x="381.6" y="285.2" fill="none" width="278.4" height="22.9"/>
<text transform="matrix(1 0 0 1 381.6493 290.9512)" font-family="'FuturaStd-Bold'" font-size="6.9739" letter-spacing="2">SET PAID</text>
<rect x="302.8" y="514.2" fill="none" width="139.9" height="14.8"/>
<text transform="matrix(1 0 0 1 302.8063 521.6409)"><tspan x="0" y="0" font-family="'FuturaStd-Bold'" font-size="9" letter-spacing="2">$:  </tspan><tspan x="27" y="0" fill="#214BA0" font-family="'FuturaStd-Bold'" font-size="9" letter-spacing="2">300</tspan></text>
<rect x="201.3" y="514.2" fill="none" width="97.9" height="16.6"/>
<text transform="matrix(1 0 0 1 201.2875 521.7161)" fill="#214BA0" font-family="'FuturaStd-Bold'" font-size="9" letter-spacing="2">lana milne</text>
<path fill="none" stroke="#000000" stroke-miterlimit="10" d="M359.9,529.9h-35.5c-0.4,0-0.7-0.3-0.7-0.7v-22c0-0.4,0.3-0.7,0.7-0.7
	h35.5c0.4,0,0.7,0.3,0.7,0.7v22C360.6,529.6,360.3,529.9,359.9,529.9z"/>
<rect x="157.3" y="480.5" fill="none" width="94" height="16"/>
<text transform="matrix(1 0 0 1 157.2519 487.9228)" font-family="'FuturaStd-Bold'" font-size="9" letter-spacing="3">1.31.2015</text>
<path fill="none" stroke="#000000" stroke-width="1.9386" stroke-miterlimit="10" d="M435.4,529.8h-61.1c-0.4,0-0.7-0.3-0.7-0.7
	v-21.3c0-0.4,0.3-0.7,0.7-0.7h61.1c0.4,0,0.7,0.3,0.7,0.7v21.3C436.1,529.5,435.8,529.8,435.4,529.8z"/>
<rect x="381.6" y="515.2" fill="none" width="278.4" height="22.9"/>
<text transform="matrix(1 0 0 1 381.6493 520.9512)" font-family="'FuturaStd-Bold'" font-size="6.9739" letter-spacing="2">SET PAID</text>
<rect x="302.8" y="374.2" fill="none" width="139.9" height="14.8"/>
<text transform="matrix(1 0 0 1 302.8063 381.6569)"><tspan x="0" y="0" font-family="'FuturaStd-Bold'" font-size="9" letter-spacing="2">$:  </tspan><tspan x="27" y="0" fill="#214BA0" font-family="'FuturaStd-Bold'" font-size="9" letter-spacing="2">120</tspan></text>
<rect x="201.3" y="374.3" fill="none" width="97.9" height="16.6"/>
<text transform="matrix(1 0 0 1 201.2875 381.7321)" fill="#214BA0" font-family="'FuturaStd-Bold'" font-size="9" letter-spacing="2">MOLLY ING</text>
<path fill="none" stroke="#000000" stroke-miterlimit="10" d="M359.9,389.9h-35.5c-0.4,0-0.7-0.3-0.7-0.7v-22c0-0.4,0.3-0.7,0.7-0.7
	h35.5c0.4,0,0.7,0.3,0.7,0.7v22C360.6,389.6,360.3,389.9,359.9,389.9z"/>
<path fill="#214BA0" d="M214.1,415.9H202c-0.4,0-0.7-0.3-0.7-0.7v-10.3c0-0.4,0.3-0.7,0.7-0.7h12.1c0.4,0,0.7,0.3,0.7,0.7v10.3
	C214.9,415.6,214.5,415.9,214.1,415.9z"/>
<rect x="157.3" y="340.5" fill="none" width="94" height="16"/>
<text transform="matrix(1 0 0 1 157.2519 347.939)" font-family="'FuturaStd-Bold'" font-size="9" letter-spacing="3">1.31.2015</text>
<path fill="none" stroke="#000000" stroke-width="1.9386" stroke-miterlimit="10" d="M435.4,389.8h-61.1c-0.4,0-0.7-0.3-0.7-0.7
	v-21.3c0-0.4,0.3-0.7,0.7-0.7h61.1c0.4,0,0.7,0.3,0.7,0.7v21.3C436.1,389.5,435.8,389.8,435.4,389.8z"/>
<rect x="381.6" y="375.2" fill="none" width="278.4" height="22.9"/>
<text transform="matrix(1 0 0 1 381.6493 380.9673)" font-family="'FuturaStd-Bold'" font-size="6.9739" letter-spacing="2">SET PAID</text>
<polyline fill="none" stroke="#FFFFFF" stroke-miterlimit="10" points="205.5,410.4 208.1,412.6 211.4,406.4 "/>
<g>
	<rect x="226.5" y="406.4" fill="none" width="276.8" height="17"/>
	<text transform="matrix(1 0 0 1 226.5157 413.8604)" font-family="'FuturaStd-Book'" font-size="9" letter-spacing="3">bill on 01/31  Amount:$20</text>
</g>
<g>
	<rect x="226.5" y="433" fill="none" width="276.8" height="17"/>
	<text transform="matrix(1 0 0 1 226.5157 440.4569)" font-family="'FuturaStd-Book'" font-size="9" letter-spacing="3">bill on 02/01  Amount:$100</text>
</g>
<path fill="#214BA0" d="M214.1,444.8H202c-0.4,0-0.7-0.3-0.7-0.7v-10.3c0-0.4,0.3-0.7,0.7-0.7h12.1c0.4,0,0.7,0.3,0.7,0.7v10.3
	C214.9,444.5,214.5,444.8,214.1,444.8z"/>
<polyline fill="none" stroke="#FFFFFF" stroke-miterlimit="10" points="205.5,439.3 208.1,441.5 211.4,435.3 "/>
</svg>
