<?xml version="1.0" encoding="utf-8"?>
<!-- Generator: Adobe Illustrator 18.1.1, SVG Export Plug-In . SVG Version: 6.00 Build 0)  -->
<!DOCTYPE svg PUBLIC "-//W3C//DTD SVG 1.1//EN" "http://www.w3.org/Graphics/SVG/1.1/DTD/svg11.dtd">
<svg version="1.1" id="Layer_1" xmlns="http://www.w3.org/2000/svg" xmlns:xlink="http://www.w3.org/1999/xlink" x="0px" y="0px"
	 viewBox="0 0 805.8 544.7" enable-background="new 0 0 805.8 544.7" xml:space="preserve">
<rect x="0.7" y="38.9" fill="#EFEFE7" width="805.8" height="505.4"/>
<rect x="0.7" y="37.4" fill="#FFFFFF" width="805.8" height="44.7"/>
<rect x="0.7" y="78.9" width="805.8" height="36.2"/>
<rect x="0.7" y="-0.4" fill="#E3E3E8" width="805.8" height="37.8"/>
<path fill="#FFFFFF" d="M111.5,115.9H19.8C19.8,90.5,40.4,70,65.7,70S111.5,90.5,111.5,115.9z"/>
<circle fill="#FFFFFF" stroke="#000000" stroke-width="1.5012" stroke-miterlimit="10" cx="65.7" cy="115.9" r="45.8"/>
<path fill="none" stroke="#000000" stroke-width="0.6672" stroke-miterlimit="10" d="M36.7,139.8c-5.9-6.7-9.5-15.6-9.5-25.2
	c0-21.1,17.1-38.2,38.2-38.2s38.2,17.1,38.2,38.2c0,9.2-3.2,17.6-8.6,24.1"/>
<path id="SVGID_x5F_1_x5F__5_" fill="none" d="M104.2,117.1c0-21.1-17.1-38.2-38.2-38.2S27.8,96,27.8,117.1s17.1,38.2,38.2,38.2
	S104.2,138.2,104.2,117.1z"/>
<text><textPath  xlink:href="#SVGID_x5F_1_x5F__5_" startOffset="82.361%">
<tspan  font-family="'FuturaStd-Heavy'" font-size="7.4694" letter-spacing="860">NADINE</tspan></textPath>
</text>
<g>
	<path fill="#B0AEA1" stroke="#000000" stroke-width="0.834" stroke-miterlimit="10" d="M73,124.7l4.4-17.8l-0.7-1.6
		c0,0,1.6,4.4,6.8,4.4s5.5-4.5,5.5-4.5H65.8h0H42.7c0,0,0.3,4.5,5.5,4.5s6.8-4.4,6.8-4.4l-1,1.6l4.4,17.8"/>
	<path fill="#FFFFFF" stroke="#000000" stroke-width="1.0008" stroke-miterlimit="10" d="M74,127.7c0,2.5-3.3,3.7-8.4,3.7
		s-8.2-1.3-8.2-3.7c0-4.1,3.2-4.5,8.2-4.5S74,122.9,74,127.7z"/>
	<line fill="none" stroke="#000000" stroke-width="1.0008" stroke-miterlimit="10" x1="54" y1="107" x2="58.3" y2="124.7"/>
	<ellipse cx="61.6" cy="126.5" rx="1" ry="0.7"/>
	<ellipse cx="70" cy="126.5" rx="1" ry="0.7"/>
	<path fill="none" stroke="#000000" stroke-width="1.0008" stroke-miterlimit="10" d="M58.7,113.1c0,0,2.1,2.4,4.6,0"/>
	<path fill="none" stroke="#000000" stroke-width="1.0008" stroke-miterlimit="10" d="M68.1,113.1c0,0,2.1,2.4,4.6,0"/>
	<path stroke="#000000" stroke-width="1.0008" stroke-miterlimit="10" d="M57.6,97.9c0-0.1,0-0.1-0.2,0c-0.7,0.3-2.2,1.3-2.2,3.5
		c0,3,1.6,3.8,1.6,3.8h1.6c0,0-2.6-1.5-2.4-4S57.5,98.6,57.6,97.9z"/>
	<path stroke="#000000" stroke-width="1.0008" stroke-miterlimit="10" d="M73.8,97.9c0-0.1,0-0.1,0.2,0c0.7,0.3,2.2,1.3,2.2,3.5
		c0,3-1.6,3.8-1.6,3.8H73c0,0,2.6-1.5,2.4-4C75.1,98.6,73.9,98.6,73.8,97.9z"/>
	<path fill="#FFFFFF" stroke="#000000" stroke-width="1.0008" stroke-miterlimit="10" d="M70.4,131.1c0,1.7-1.3,2.3-4.7,2.3
		c-3.4,0-4.8-0.7-4.8-2.3H70.4z"/>
</g>
<circle fill="#DF6F65" cx="19.8" cy="20" r="7.4"/>
<circle fill="#E5BB45" cx="46.2" cy="20" r="7.4"/>
<circle fill="#66C189" cx="72.6" cy="20" r="7.4"/>
<path fill="#FFFFFF" d="M795.7,31H115.1c-2,0-3.6-1.6-3.6-3.6V12.8c0-2,1.6-3.6,3.6-3.6h680.6c2,0,3.6,1.6,3.6,3.6v14.6
	C799.3,29.3,797.7,31,795.7,31z"/>
<g>
	<path d="M784.6,16.2h1.6v3.1h3.1v1.6h-3.1v3.1h-1.6v-3.1h-3.1v-1.6h3.1V16.2z"/>
</g>
<path fill="none" stroke="#000000" stroke-width="1.5012" stroke-miterlimit="10" d="M747.8,66.9v3.6c0,0.3-0.2,0.5-0.5,0.5h-16.6
	c-0.3,0-0.5-0.2-0.5-0.5V48.6c0-0.3,0.2-0.5,0.5-0.5h16.6c0.3,0,0.5,0.2,0.5,0.5V52"/>
<polyline fill="none" stroke="#000000" stroke-width="1.5012" stroke-miterlimit="10" points="733.9,60.3 743,60.3 749.6,60.3 
	744,65.8 "/>
<polyline fill="none" stroke="#000000" stroke-width="1.5012" stroke-miterlimit="10" points="733.9,58.2 743,58.2 749.6,58.2 
	744,52.7 "/>
<g>
	<rect x="158.4" y="94.1" fill="none" width="841.3" height="19"/>
	<text transform="matrix(1 0 0 1 158.3639 102.7732)"><tspan x="0" y="0" fill="#FFFFFF" font-family="'FuturaStd-Medium'" font-size="10" letter-spacing="4">to do  members list  </tspan><tspan x="188.8" y="0" fill="#214BA0" font-family="'FuturaStd-Bold'" font-size="10" letter-spacing="4">activity</tspan><tspan x="267.1" y="0" fill="#FFFFFF" font-family="'FuturaStd-Medium'" font-size="10" letter-spacing="4">  billing  stats  logs  lists</tspan></text>
</g>
<g>
	<rect x="158.4" y="132.1" fill="none" width="841.3" height="19"/>
	<text transform="matrix(1 0 0 1 158.3639 139.017)"><tspan x="0" y="0" font-family="'FuturaStd-Medium'" font-size="8" letter-spacing="3">record activity | </tspan><tspan x="130.8" y="0" fill="#214BA0" font-family="'FuturaStd-Medium'" font-size="8" letter-spacing="3">activity  graph</tspan><tspan x="240.6" y="0" font-family="'FuturaStd-Medium'" font-size="8" letter-spacing="3"> | activity list</tspan></text>
</g>
<g>
	<rect x="158.4" y="56.4" fill="none" width="841.3" height="87.5"/>
	<text transform="matrix(1 0 0 1 158.3639 64.8927)"><tspan x="0" y="0" fill="#214BA0" font-family="'FuturaStd-Heavy'" font-size="10" letter-spacing="4">staff view </tspan><tspan x="99.1" y="0" font-family="'FuturaStd-Heavy'" font-size="10" letter-spacing="4">/ member view</tspan></text>
</g>
<rect x="168.4" y="222.3" fill="none" width="139.9" height="14.8"/>
<text transform="matrix(1 0 0 1 168.3719 229.8178)"><tspan x="0" y="0" font-family="'FuturaStd-Bold'" font-size="9" letter-spacing="2">from: </tspan><tspan x="51.3" y="0" fill="#214BA0" font-family="'FuturaStd-Bold'" font-size="9" letter-spacing="2">2015-01-02</tspan></text>
<rect x="325.6" y="222.3" fill="none" width="139.9" height="14.8"/>
<text transform="matrix(1 0 0 1 325.5758 229.8178)"><tspan x="0" y="0" font-family="'FuturaStd-Bold'" font-size="9" letter-spacing="2">to: </tspan><tspan x="30.5" y="0" fill="#214BA0" font-family="'FuturaStd-Bold'" font-size="9" letter-spacing="2">2015-02-02</tspan></text>
<path fill="none" stroke="#000000" stroke-width="2" stroke-miterlimit="10" d="M445,239.1H318.8c-0.4,0-0.7-0.3-0.7-0.7v-22
	c0-0.4,0.3-0.7,0.7-0.7H445c0.4,0,0.7,0.3,0.7,0.7v22C445.8,238.8,445.4,239.1,445,239.1z"/>
<path fill="none" stroke="#000000" stroke-width="2" stroke-miterlimit="10" d="M309.7,239.1H158c-0.4,0-0.7-0.3-0.7-0.7v-22
	c0-0.4,0.3-0.7,0.7-0.7h151.7c0.4,0,0.7,0.3,0.7,0.7v22C310.4,238.8,310.1,239.1,309.7,239.1z"/>
<g>
	<rect x="157.3" y="185.3" fill="none" width="276.8" height="17"/>
	<text transform="matrix(1 0 0 1 157.2521 194.498)" font-family="'FuturaStd-Bold'" font-size="11.1071" letter-spacing="4">activity</text>
</g>
<g>
	<rect x="157.3" y="262.6" fill="none" width="276.8" height="17"/>
	<text transform="matrix(1 0 0 1 157.2521 270.0544)" font-family="'FuturaStd-Book'" font-size="9" letter-spacing="3">color key</text>
</g>
<g>
	<rect x="157.3" y="336.6" fill="none" width="43" height="17"/>
	<text transform="matrix(1 0 0 1 157.2521 344.0993)" font-family="'FuturaStd-Bold'" font-size="9" letter-spacing="3">date</text>
</g>
<rect x="158.4" y="288.6" fill="#214BA0" width="203.4" height="19"/>
<rect x="374.9" y="288.6" fill="#B0AEA1" width="135" height="19"/>
<rect x="410.2" y="294.1" fill="none" width="128" height="13"/>
<text transform="matrix(1 0 0 1 410.1605 301.4935)" font-family="'FuturaStd-Book'" font-size="9" letter-spacing="1">part time</text>
<rect x="521.7" y="288.6" width="161.4" height="19"/>
<rect x="556.2" y="294.1" fill="none" width="128" height="13"/>
<text transform="matrix(1 0 0 1 556.2036 301.4935)" fill="#FFFFFF" font-family="'FuturaStd-Book'" font-size="9" letter-spacing="1">total members</text>
<rect x="192.9" y="294.1" fill="none" width="128" height="13"/>
<text transform="matrix(1 0 0 1 192.8573 301.4935)" fill="#FFFFFF" font-family="'FuturaStd-Book'" font-size="9" letter-spacing="1">members with desk</text>
<rect x="153.2" y="372.6" fill="none" width="94" height="16"/>
<text transform="matrix(1 0 0 1 153.2362 380.0934)" font-family="'FuturaStd-Bold'" font-size="9" letter-spacing="3">2.01.2015</text>
<rect x="153.2" y="449.6" fill="none" width="94" height="16"/>
<text transform="matrix(1 0 0 1 153.2362 457.0894)" font-family="'FuturaStd-Bold'" font-size="9" letter-spacing="3">1.3O.2015</text>
<rect x="153.2" y="488.1" fill="none" width="94" height="16"/>
<text transform="matrix(1 0 0 1 153.2362 495.5874)" font-family="'FuturaStd-Bold'" font-size="9" letter-spacing="3">1.29.2015</text>
<rect x="153.2" y="526.6" fill="none" width="94" height="16"/>
<text transform="matrix(1 0 0 1 153.2362 534.0854)" font-family="'FuturaStd-Bold'" font-size="9" letter-spacing="3">1.28.2015</text>
<rect x="153.2" y="411.1" fill="none" width="94" height="16"/>
<text transform="matrix(1 0 0 1 153.2362 418.5914)" font-family="'FuturaStd-Bold'" font-size="9" letter-spacing="3">1.31.2015</text>
<rect x="277.9" y="369.1" fill="#214BA0" width="83.9" height="13.5"/>
<rect x="277.9" y="407.6" fill="#214BA0" width="83.9" height="13.5"/>
<rect x="277.9" y="446.1" fill="#214BA0" width="83.9" height="13.5"/>
<rect x="277.9" y="484.6" fill="#214BA0" width="83.9" height="13.5"/>
<rect x="277.9" y="523.1" fill="#214BA0" width="83.9" height="13.5"/>
<rect x="372.7" y="446.1" fill="#B0AEA1" width="84.8" height="13.5"/>
<rect x="372.7" y="484.6" fill="#B0AEA1" width="94.7" height="13.5"/>
<rect x="372.7" y="523.1" fill="#B0AEA1" width="118.9" height="13.5"/>
<rect x="343" y="372.4" fill="none" width="72" height="16"/>
<text transform="matrix(1 0 0 1 343.0332 378.9676)"><tspan x="0" y="0" fill="#FFFFFF" font-family="'FuturaStd-Book'" font-size="8" letter-spacing="1">47</tspan><tspan x="12.4" y="0" fill="#FFFFFF" font-family="'FuturaStd-Book'" font-size="8" letter-spacing="18">	</tspan><tspan x="33.3" y="0" font-family="'FuturaStd-Book'" font-size="8" letter-spacing="1">47</tspan></text>
<rect x="343" y="411.1" fill="none" width="72" height="16"/>
<text transform="matrix(1 0 0 1 343.0332 417.7112)"><tspan x="0" y="0" fill="#FFFFFF" font-family="'FuturaStd-Book'" font-size="8" letter-spacing="1">48</tspan><tspan x="12.4" y="0" fill="#FFFFFF" font-family="'FuturaStd-Book'" font-size="8" letter-spacing="18">	</tspan><tspan x="33.3" y="0" font-family="'FuturaStd-Book'" font-size="8" letter-spacing="1">48</tspan></text>
<rect x="343" y="449.1" fill="none" width="72" height="16"/>
<text transform="matrix(1 0 0 1 343.0332 455.712)"><tspan x="0" y="0" fill="#FFFFFF" font-family="'FuturaStd-Book'" font-size="8" letter-spacing="1">48</tspan><tspan x="12.4" y="0" fill="#FFFFFF" font-family="'FuturaStd-Book'" font-size="8" letter-spacing="18">	</tspan><tspan x="33.3" y="0" font-family="'FuturaStd-Book'" font-size="8" letter-spacing="1">23</tspan></text>
<rect x="343" y="488.1" fill="none" width="72" height="16"/>
<text transform="matrix(1 0 0 1 343.0332 494.7128)"><tspan x="0" y="0" fill="#FFFFFF" font-family="'FuturaStd-Book'" font-size="8" letter-spacing="1">48</tspan><tspan x="12.4" y="0" fill="#FFFFFF" font-family="'FuturaStd-Book'" font-size="8" letter-spacing="18">	</tspan><tspan x="33.3" y="0" font-family="'FuturaStd-Book'" font-size="8" letter-spacing="1">26</tspan></text>
<rect x="343" y="526.1" fill="none" width="72" height="16"/>
<text transform="matrix(1 0 0 1 343.0332 532.7128)"><tspan x="0" y="0" fill="#FFFFFF" font-family="'FuturaStd-Book'" font-size="8" letter-spacing="1">49</tspan><tspan x="12.4" y="0" fill="#FFFFFF" font-family="'FuturaStd-Book'" font-size="8" letter-spacing="18">	</tspan><tspan x="33.3" y="0" font-family="'FuturaStd-Book'" font-size="8" letter-spacing="1">32</tspan></text>
<g>
	<rect x="521.7" y="369.1" width="151.8" height="13.5"/>
	<rect x="530.3" y="372.4" fill="none" width="72" height="16"/>
	
		<text transform="matrix(1 0 0 1 530.2646 378.9676)" fill="#FFFFFF" font-family="'FuturaStd-Book'" font-size="8" letter-spacing="1">170</text>
</g>
<g>
	<rect x="521.7" y="407.9" width="151.8" height="13.5"/>
	<rect x="530.3" y="411.9" fill="none" width="72" height="16"/>
	
		<text transform="matrix(1 0 0 1 530.2645 418.5206)" fill="#FFFFFF" font-family="'FuturaStd-Book'" font-size="8" letter-spacing="1">170</text>
</g>
<g>
	<rect x="521.7" y="446.7" width="151.8" height="13.5"/>
	<rect x="530.3" y="449.2" fill="none" width="72" height="16"/>
	
		<text transform="matrix(1 0 0 1 530.2645 455.818)" fill="#FFFFFF" font-family="'FuturaStd-Book'" font-size="8" letter-spacing="1">171</text>
</g>
<g>
	<rect x="521.7" y="485.5" width="151.8" height="13.5"/>
	<rect x="530.3" y="488.5" fill="none" width="72" height="16"/>
	
		<text transform="matrix(1 0 0 1 530.2645 495.117)" fill="#FFFFFF" font-family="'FuturaStd-Book'" font-size="8" letter-spacing="1">172</text>
</g>
<g>
	<rect x="521.7" y="524.3" width="161.4" height="12.4"/>
	<rect x="530.3" y="526.2" fill="none" width="72" height="16"/>
	
		<text transform="matrix(1 0 0 1 530.2645 532.7643)" fill="#FFFFFF" font-family="'FuturaStd-Book'" font-size="8" letter-spacing="1">178</text>
</g>
</svg>
