<?xml version="1.0" encoding="utf-8"?>
<!-- Generator: Adobe Illustrator 18.1.1, SVG Export Plug-In . SVG Version: 6.00 Build 0)  -->
<!DOCTYPE svg PUBLIC "-//W3C//DTD SVG 1.1//EN" "http://www.w3.org/Graphics/SVG/1.1/DTD/svg11.dtd">
<svg version="1.1" id="Layer_1" xmlns="http://www.w3.org/2000/svg" xmlns:xlink="http://www.w3.org/1999/xlink" x="0px" y="0px"
	 viewBox="0 0 805.8 544.7" enable-background="new 0 0 805.8 544.7" xml:space="preserve">
<rect x="0" y="38.5" fill="#EFEFE7" width="805.8" height="505.4"/>
<path fill="#FFFFFF" stroke="#000000" stroke-width="2" stroke-miterlimit="10" d="M296.1,416.1H161.3c-2,0-3.6-1.6-3.6-3.6V288.8
	c0-2,1.6-3.6,3.6-3.6h134.8c2,0,3.6,1.6,3.6,3.6v123.7C299.7,414.5,298.1,416.1,296.1,416.1z"/>
<rect x="0" y="37.1" fill="#FFFFFF" width="805.8" height="79.9"/>
<rect x="0" y="-0.7" fill="#E3E3E8" width="805.8" height="37.8"/>
<path fill="none" stroke="#000000" stroke-width="0.6672" stroke-miterlimit="10" d="M35.9,137.5c-5.9-6.7-9.5-15.6-9.5-25.2
	c0-21.1,17.1-38.2,38.2-38.2s38.2,17.1,38.2,38.2c0,9.2-3.2,17.6-8.6,24.1"/>
<path id="SVGID_x5F_1_x5F__3_" fill="none" d="M103.5,114.8c0-21.1-17.1-38.2-38.2-38.2s-38.2,17.1-38.2,38.2S44.2,153,65.3,153
	S103.5,135.9,103.5,114.8z"/>
<text><textPath  xlink:href="#SVGID_x5F_1_x5F__3_" startOffset="82.361%">
<tspan  font-family="'FuturaStd-Heavy'" font-size="7.4694" letter-spacing="860">NADINE</tspan></textPath>
</text>
<g>
	<path fill="#B0AEA1" stroke="#000000" stroke-width="0.834" stroke-miterlimit="10" d="M72.3,122.4l4.4-17.8l-0.7-1.6
		c0,0,1.6,4.4,6.8,4.4s5.5-4.5,5.5-4.5H65.1h0H41.9c0,0,0.3,4.5,5.5,4.5s6.8-4.4,6.8-4.4l-1,1.6l4.4,17.8"/>
	<path fill="#FFFFFF" stroke="#000000" stroke-width="1.0008" stroke-miterlimit="10" d="M73.3,125.4c0,2.5-3.3,3.7-8.4,3.7
		s-8.2-1.3-8.2-3.7c0-4.1,3.2-4.5,8.2-4.5S73.3,120.6,73.3,125.4z"/>
	<line fill="none" stroke="#000000" stroke-width="1.0008" stroke-miterlimit="10" x1="53.3" y1="104.6" x2="57.6" y2="122.4"/>
	<ellipse cx="60.8" cy="124.2" rx="1" ry="0.7"/>
	<ellipse cx="69.3" cy="124.2" rx="1" ry="0.7"/>
	<path fill="none" stroke="#000000" stroke-width="1.0008" stroke-miterlimit="10" d="M58,110.8c0,0,2.1,2.4,4.6,0"/>
	<path fill="none" stroke="#000000" stroke-width="1.0008" stroke-miterlimit="10" d="M67.4,110.8c0,0,2.1,2.4,4.6,0"/>
	<path stroke="#000000" stroke-width="1.0008" stroke-miterlimit="10" d="M56.8,95.5c0-0.1,0-0.1-0.2,0c-0.7,0.3-2.2,1.3-2.2,3.5
		c0,3,1.6,3.8,1.6,3.8h1.6c0,0-2.6-1.5-2.4-4C55.6,96.3,56.8,96.2,56.8,95.5z"/>
	<path stroke="#000000" stroke-width="1.0008" stroke-miterlimit="10" d="M73,95.5c0-0.1,0-0.1,0.2,0c0.7,0.3,2.2,1.3,2.2,3.5
		c0,3-1.6,3.8-1.6,3.8h-1.6c0,0,2.6-1.5,2.4-4C74.3,96.3,73.1,96.2,73,95.5z"/>
	<path fill="#FFFFFF" stroke="#000000" stroke-width="1.0008" stroke-miterlimit="10" d="M69.7,128.8c0,1.7-1.3,2.3-4.7,2.3
		c-3.4,0-4.8-0.7-4.8-2.3H69.7z"/>
</g>
<circle fill="none" stroke="#000000" stroke-width="1.5012" stroke-miterlimit="10" cx="65" cy="113.5" r="45.8"/>
<circle fill="#DF6F65" cx="19.1" cy="19.7" r="7.4"/>
<circle fill="#E5BB45" cx="45.5" cy="19.7" r="7.4"/>
<circle fill="#66C189" cx="71.9" cy="19.7" r="7.4"/>
<path fill="#FFFFFF" d="M795,30.6H114.4c-2,0-3.6-1.6-3.6-3.6V12.4c0-2,1.6-3.6,3.6-3.6H795c2,0,3.6,1.6,3.6,3.6V27
	C798.6,29,797,30.6,795,30.6z"/>
<g>
	<path d="M783.8,15.9h1.6v3.1h3.1v1.6h-3.1v3.1h-1.6v-3.1h-3.1v-1.6h3.1V15.9z"/>
</g>
<path fill="none" stroke="#000000" stroke-width="1.5012" stroke-miterlimit="10" d="M747.1,100.6v3.6c0,0.3-0.2,0.5-0.5,0.5h-16.6
	c-0.3,0-0.5-0.2-0.5-0.5V82.3c0-0.3,0.2-0.5,0.5-0.5h16.6c0.3,0,0.5,0.2,0.5,0.5v3.4"/>
<polyline fill="none" stroke="#000000" stroke-width="1.5012" stroke-miterlimit="10" points="733.1,94 742.3,94 748.9,94 
	743.3,99.5 "/>
<polyline fill="none" stroke="#000000" stroke-width="1.5012" stroke-miterlimit="10" points="733.1,91.9 742.3,91.9 748.9,91.9 
	743.3,86.3 "/>
<g>
	<rect x="157.7" y="211.8" fill="none" width="276.8" height="17"/>
	<text transform="matrix(1 0 0 1 157.6685 220.9913)" font-family="'FuturaStd-Bold'" font-size="11.1071" letter-spacing="4">view Members</text>
</g>
<g>
	<rect x="330.2" y="284.6" fill="none" width="351.4" height="54.9"/>
	<text transform="matrix(1 0 0 1 330.2104 294.0441)"><tspan x="0" y="0" font-family="'FuturaStd-Heavy'" font-size="11.1071" letter-spacing="4">profile tags:</tspan><tspan x="129.3" y="0" font-family="'FuturaStd-Heavy'" font-size="10" letter-spacing="3"> </tspan><tspan x="135.8" y="0" fill="#214BA0" font-family="'FuturaStd-Medium'" font-size="10" letter-spacing="3">design</tspan><tspan x="192.6" y="0" font-family="'FuturaStd-Medium'" font-size="10" letter-spacing="3"> |</tspan><tspan x="208.4" y="0" fill="#214BA0" font-family="'FuturaStd-Medium'" font-size="10" letter-spacing="3"> diy </tspan><tspan x="246.9" y="0" font-family="'FuturaStd-Medium'" font-size="10" letter-spacing="3">|</tspan><tspan x="256.2" y="0" fill="#214BA0" font-family="'FuturaStd-Medium'" font-size="10" letter-spacing="3">community</tspan><tspan x="0" y="20" fill="#214BA0" font-family="'FuturaStd-Medium'" font-size="10" letter-spacing="3">screen printing</tspan><tspan x="135.6" y="20" font-family="'FuturaStd-Medium'" font-size="10" letter-spacing="3"> |</tspan><tspan x="151.4" y="20" fill="#214BA0" font-family="'FuturaStd-Medium'" font-size="10" letter-spacing="3"> transit </tspan><tspan x="226.7" y="20" font-family="'FuturaStd-Medium'" font-size="10" letter-spacing="3">|</tspan><tspan x="236" y="20" fill="#214BA0" font-family="'FuturaStd-Medium'" font-size="10" letter-spacing="3"> art</tspan></text>
</g>
<g>
	<path fill="#FFFFFF" stroke="#000000" stroke-width="2" stroke-miterlimit="10" d="M258.6,338.4c0,17.2-11.8,31.2-29,31.2
		s-29-14-29-31.2s11.8-29,29-29S258.6,321.2,258.6,338.4z"/>
	<path fill="none" stroke="#000000" stroke-width="2" stroke-miterlimit="10" d="M215.1,349.4c0,0,2.4,8.8,13.6,8.8
		c11.3,0,13.6-8.8,13.6-8.8"/>
	<path fill="none" stroke="#000000" stroke-width="2" stroke-miterlimit="10" d="M237.7,336.8c0,0,5.5,5.5,9.9,0"/>
	<path fill="none" stroke="#000000" stroke-width="2" stroke-miterlimit="10" d="M212.8,336.8c0,0,5.5,5.5,9.9,0"/>
	<path stroke="#000000" stroke-width="2" stroke-miterlimit="10" d="M214.8,311.4c0,0-7.5,25.7,46.5,20.8c0,0-5.6-22.2-24.3-24.8
		C222.7,305.4,214.8,311.4,214.8,311.4z"/>
	<path stroke="#000000" stroke-width="2" stroke-miterlimit="10" d="M217.5,310c0,0-6,17.7-19.8,27c0,0-0.6-10.7,3.4-15.9
		C206.9,313.7,217.5,310,217.5,310z"/>
	<path fill="#B0AEA1" stroke="#000000" stroke-width="2" stroke-miterlimit="10" d="M208.7,386.2l-0.1,29.3h42
		c0,0,0.1-13.3,0.5-28.3L251,386c-0.1,8.5-0.6,21.7-0.6,21.7l0.2,7.9h9.2l-4.7-42.3l-16.6-0.9c-2.4-0.9-5.3-1.4-8.6-1.4h-0.9
		c-3.3,0-6.1,0.5-8.6,1.4l-17.2,0.9l-3.9,42.3h9.1V407c0,0,0-12.7,0.2-21.5"/>
	<path stroke="#000000" stroke-width="2" stroke-miterlimit="10" d="M220.1,372.1c0,0,4.8,4.6,9.6,4.6s8.7-4.6,8.7-4.6
		S231.4,366.8,220.1,372.1z"/>
	<polygon stroke="#000000" stroke-width="2" stroke-miterlimit="10" points="235.3,383.8 246.8,383.8 246.8,396.4 241.6,396.2 
		235.3,396.4 	"/>
</g>
<path fill="#214BA0" d="M444.7,416.6H330.9c-0.4,0-0.7-0.3-0.7-0.7v-22c0-0.4,0.3-0.7,0.7-0.7h113.7c0.4,0,0.7,0.3,0.7,0.7v22
	C445.4,416.2,445.1,416.6,444.7,416.6z"/>
<rect x="340.3" y="401.2" fill="none" width="278.4" height="22.9"/>
<text transform="matrix(1 0 0 1 340.2516 406.9998)" fill="#FFFFFF" font-family="'FuturaStd-Bold'" font-size="6.9739" letter-spacing="2">member profile</text>
<path fill="none" stroke="#000000" stroke-width="2" stroke-miterlimit="10" d="M565.3,416.6H451.6c-0.4,0-0.7-0.3-0.7-0.7v-22
	c0-0.4,0.3-0.7,0.7-0.7h113.7c0.4,0,0.7,0.3,0.7,0.7v22C566,416.2,565.7,416.6,565.3,416.6z"/>
<rect x="460.9" y="401.2" fill="none" width="278.4" height="22.9"/>
<text transform="matrix(1 0 0 1 460.8954 406.9998)" font-family="'FuturaStd-Bold'" font-size="6.9739" letter-spacing="2">private details</text>
<path fill="none" stroke="#000000" stroke-width="2" stroke-miterlimit="10" d="M630.5,416.6h-58c-0.4,0-0.7-0.3-0.7-0.7v-22
	c0-0.4,0.3-0.7,0.7-0.7h58c0.4,0,0.7,0.3,0.7,0.7v22C631.2,416.2,630.9,416.6,630.5,416.6z"/>
<rect x="579.8" y="401.2" fill="none" width="278.4" height="22.9"/>
<text transform="matrix(1 0 0 1 579.8019 406.9998)" font-family="'FuturaStd-Bold'" font-size="6.9739" letter-spacing="2">history</text>
<path fill="none" stroke="#000000" stroke-width="2" stroke-miterlimit="10" d="M706.1,416.6h-67.7c-0.4,0-0.7-0.3-0.7-0.7v-22
	c0-0.4,0.3-0.7,0.7-0.7h67.7c0.4,0,0.7,0.3,0.7,0.7v22C706.8,416.2,706.5,416.6,706.1,416.6z"/>
<rect x="647.7" y="401.2" fill="none" width="278.4" height="22.9"/>
<text transform="matrix(1 0 0 1 647.6675 406.9998)" font-family="'FuturaStd-Bold'" font-size="6.9739" letter-spacing="2">activity</text>
<g>
	<rect x="157.7" y="465.1" fill="none" width="456.9" height="78.8"/>
	<text transform="matrix(1 0 0 1 157.668 474.3568)"><tspan x="0" y="0" font-family="'FuturaStd-Bold'" font-size="11.1071" letter-spacing="4">Adam’s Profile</tspan><tspan x="0" y="36.7" font-family="'FuturaStd-Heavy'" font-size="11.1071">Membership:</tspan><tspan x="69.9" y="36.7" font-family="'FuturaStd-Book'" font-size="11.1071" letter-spacing="26">	</tspan><tspan x="100" y="36.7" font-family="'FuturaStd-Book'" font-size="11.1071">Other</tspan><tspan x="0" y="60" font-family="'FuturaStd-Heavy'" font-size="11.1071">Member Since:</tspan><tspan x="79.6" y="60" font-family="'FuturaStd-Book'" font-size="11.1071" letter-spacing="16">	</tspan><tspan x="100" y="60" font-family="'FuturaStd-Book'" font-size="11.1071">Oct. 20, 2014</tspan></text>
</g>
<rect x="253.5" y="85.1" fill="#214BA0" width="86.7" height="17.8"/>
<g>
	<rect x="159.1" y="88.2" fill="none" width="841.3" height="49.3"/>
	<text transform="matrix(1 0 0 1 159.1404 97.8444)"><tspan x="0" y="0" font-family="'FuturaStd-Medium'" font-size="11.1071" letter-spacing="4">profile</tspan><tspan x="69.7" y="0" font-family="'FuturaStd-Medium'" font-size="11.1071" letter-spacing="27">	</tspan><tspan x="100" y="0" fill="#FFFFFF" font-family="'FuturaStd-Heavy'" font-size="11.1071" letter-spacing="4">members</tspan><tspan x="178.7" y="0" font-family="'FuturaStd-Medium'" font-size="11.1071" letter-spacing="18">	</tspan><tspan x="199.9" y="0" font-family="'FuturaStd-Medium'" font-size="11.1071" letter-spacing="4">events</tspan><tspan x="265" y="0" font-family="'FuturaStd-Medium'" font-size="11.1071" letter-spacing="-1">	</tspan><tspan x="266.6" y="0" font-family="'FuturaStd-Medium'" font-size="11.1071" letter-spacing="4">   tags   mailinglist</tspan><tspan x="468.6" y="0" font-family="'FuturaStd-Medium'" font-size="11.1071" letter-spacing="4">s  chat </tspan><tspan x="547.4" y="0" font-family="'FuturaStd-Medium'" font-size="11.1071" letter-spacing="15">	</tspan></text>
</g>
</svg>
